<svg xmlns="http://www.w3.org/2000/svg" xmlns:xlink="http://www.w3.org/1999/xlink" xmlns:lucid="lucid" width="2061" height="836.4"><g transform="translate(-419.5 -46.99999999994924)" lucid:page-tab-id="0_0"><path d="M0 0h2575.34v1515.73H0z" fill="#fff"/><path d="M453.15 76a8 8 0 0 1 8-8h836.75a8 8 0 0 1 8 8v25.16a8 8 0 0 1-8 8H461.15a8 8 0 0 1-8-8z" stroke="#000" stroke-opacity="0" stroke-width="2" fill="#fff" fill-opacity="0"/><use xlink:href="#a" transform="matrix(1,0,0,1,457.1465527853429,71.99999999994924) translate(302.2013580246914 25.782777777777778)"/><use xlink:href="#b" transform="matrix(1,0,0,1,457.1465527853429,71.99999999994924) translate(353.1161728395062 25.782777777777778)"/><use xlink:href="#c" transform="matrix(1,0,0,1,457.1465527853429,71.99999999994924) translate(494.2062962962963 25.782777777777778)"/><path d="M628.63 107.8h505.86M628.66 107.8h-1.02M1134.47 107.8h1.02" stroke="#a9afb8" stroke-width="2" fill="none"/><path d="M453.15 117.16a8 8 0 0 1 8-8h837.7a8 8 0 0 1 8 8V120a8 8 0 0 1-8 8h-837.7a8 8 0 0 1-8-8z" stroke="#000" stroke-opacity="0" stroke-width="2" fill="#fff" fill-opacity="0"/><use xlink:href="#d" transform="matrix(1,0,0,1,457.1465527853434,113.15522395684805) translate(338.10135802469136 14.917037037037037)"/><use xlink:href="#e" transform="matrix(1,0,0,1,457.1465527853434,113.15522395684805) translate(383.9902469135802 14.917037037037037)"/><use xlink:href="#f" transform="matrix(1,0,0,1,457.1465527853434,113.15522395684805) translate(396.4397325102881 14.917037037037037)"/><use xlink:href="#g" transform="matrix(1,0,0,1,457.1465527853434,113.15522395684805) translate(455.0330452674897 14.917037037037037)"/><use xlink:href="#h" transform="matrix(1,0,0,1,457.1465527853434,113.15522395684805) translate(480.5268724279835 14.917037037037037)"/><path d="M440 364.02a8 8 0 0 1 8-8h364a8 8 0 0 1 8 8v152a8 8 0 0 1-8 8H448a8 8 0 0 1-8-8z" fill="#fff"/><path d="M440 364.02a8 8 0 0 1 8-8h364a8 8 0 0 1 8 8v152a8 8 0 0 1-8 8H448a8 8 0 0 1-8-8zM440 396.02h380M507.97 396.02v128M673.5 396.02v128" stroke="#3a414a" fill="none"/><use xlink:href="#i" transform="matrix(1,0,0,1,450,356.02208703332417) translate(130.05 23.6)"/><use xlink:href="#j" transform="matrix(1,0,0,1,445,398.52208703332417) translate(17 17.1)"/><use xlink:href="#k" transform="matrix(1,0,0,1,512.9703630670463,398.52208703332417) translate(17.574999999999996 17.1)"/><use xlink:href="#l" transform="matrix(1,0,0,1,678.5029938177504,398.52208703332417) translate(36.525 17.1)"/><use xlink:href="#m" transform="matrix(1,0,0,1,512.9703630670463,430.52208703332417) translate(36.075 17.1)"/><use xlink:href="#n" transform="matrix(1,0,0,1,678.5029938177504,430.52208703332417) translate(4.325000000000003 17.1)"/><use xlink:href="#o" transform="matrix(1,0,0,1,512.9703630670463,462.52208703332417) translate(36.55 17.1)"/><use xlink:href="#n" transform="matrix(1,0,0,1,678.5029938177504,462.52208703332417) translate(4.325000000000003 17.1)"/><use xlink:href="#p" transform="matrix(1,0,0,1,512.9703630670463,494.52208703332417) translate(13.549999999999997 17.1)"/><use xlink:href="#q" transform="matrix(1,0,0,1,678.5029938177504,494.52208703332417) translate(9.324999999999996 17.1)"/><path d="M1200 208a8 8 0 0 1 8-8h289.72a8 8 0 0 1 8 8v120a8 8 0 0 1-8 8H1208a8 8 0 0 1-8-8z" fill="#fff"/><path d="M1200 208a8 8 0 0 1 8-8h289.72a8 8 0 0 1 8 8v120a8 8 0 0 1-8 8H1208a8 8 0 0 1-8-8zM1200 240h305.72M1255.55 240v96M1359.16 240v96" stroke="#3a414a" fill="none"/><use xlink:href="#r" transform="matrix(1,0,0,1,1210,200) translate(128.55 23.6)"/><use xlink:href="#j" transform="matrix(1,0,0,1,1205,242.5) translate(11 17.1)"/><use xlink:href="#s" transform="matrix(1,0,0,1,1260.5480218386297,242.5) translate(32.025 17.1)"/><use xlink:href="#l" transform="matrix(1,0,0,1,1364.1638670413606,242.5) translate(36.525 17.1)"/><use xlink:href="#t" transform="matrix(1,0,0,1,1260.5480218386297,274.5) translate(25.025 17.1)"/><use xlink:href="#n" transform="matrix(1,0,0,1,1364.1638670413606,274.5) translate(4.325000000000003 17.1)"/><use xlink:href="#u" transform="matrix(1,0,0,1,1260.5480218386297,306.5) translate(22.549999999999997 17.1)"/><use xlink:href="#n" transform="matrix(1,0,0,1,1364.1638670413606,306.5) translate(4.325000000000003 17.1)"/><path d="M780 668a8 8 0 0 1 8-8h384a8 8 0 0 1 8 8v152a8 8 0 0 1-8 8H788a8 8 0 0 1-8-8z" fill="#fff"/><path d="M780 668a8 8 0 0 1 8-8h384a8 8 0 0 1 8 8v152a8 8 0 0 1-8 8H788a8 8 0 0 1-8-8zM780 700h400M840 700v128M1036.5 700v128" stroke="#3a414a" fill="none"/><use xlink:href="#v" transform="matrix(1,0,0,1,790,660.0154700271496) translate(151.075 23.6)"/><use xlink:href="#j" transform="matrix(1,0,0,1,785,702.5154700271496) translate(13 17.1)"/><use xlink:href="#w" transform="matrix(1,0,0,1,845,702.5154700271496) translate(44.574999999999996 17.1)"/><use xlink:href="#l" transform="matrix(1,0,0,1,1041.4894412664316,702.5154700271496) translate(35.025 17.1)"/><use xlink:href="#m" transform="matrix(1,0,0,1,845,734.5154700271496) translate(51.575 17.1)"/><use xlink:href="#n" transform="matrix(1,0,0,1,1041.4894412664316,734.5154700271496) translate(2.825000000000003 17.1)"/><use xlink:href="#o" transform="matrix(1,0,0,1,845,766.5154700271496) translate(52.05 17.1)"/><use xlink:href="#n" transform="matrix(1,0,0,1,1041.4894412664316,766.5154700271496) translate(2.825000000000003 17.1)"/><use xlink:href="#p" transform="matrix(1,0,0,1,845,798.5154700271496) translate(29.049999999999997 17.1)"/><use xlink:href="#q" transform="matrix(1,0,0,1,1041.4894412664316,798.5154700271496) translate(7.824999999999996 17.1)"/><path d="M920 364.02a8 8 0 0 1 8-8h304a8 8 0 0 1 8 8v216a8 8 0 0 1-8 8H928a8 8 0 0 1-8-8z" fill="#fff"/><path d="M920 364.02a8 8 0 0 1 8-8h304a8 8 0 0 1 8 8v216a8 8 0 0 1-8 8H928a8 8 0 0 1-8-8zM920 396.02h320M980 396.02v192M1107.97 396.02v192" stroke="#3a414a" fill="none"/><use xlink:href="#x" transform="matrix(1,0,0,1,930,356.02208703332417) translate(121.525 23.6)"/><use xlink:href="#j" transform="matrix(1,0,0,1,925,398.52208703332417) translate(13 17.1)"/><use xlink:href="#y" transform="matrix(1,0,0,1,985,398.52208703332417) translate(19.074999999999996 17.1)"/><use xlink:href="#l" transform="matrix(1,0,0,1,1112.9663746286737,398.52208703332417) translate(29.525 17.1)"/><use xlink:href="#z" transform="matrix(1,0,0,1,985,430.52208703332417) translate(41.5 17.1)"/><use xlink:href="#A" transform="matrix(1,0,0,1,1112.9663746286737,430.52208703332417) translate(38.224999999999994 17.1)"/><use xlink:href="#B" transform="matrix(1,0,0,1,985,462.52208703332417) translate(42.5 17.1)"/><use xlink:href="#C" transform="matrix(1,0,0,1,1112.9663746286737,462.52208703332417) translate(-3.825000000000003 17.1)"/><use xlink:href="#D" transform="matrix(1,0,0,1,925,494.52208703332417) translate(13.524999999999999 17.1)"/><use xlink:href="#s" transform="matrix(1,0,0,1,985,494.52208703332417) translate(44.025 17.1)"/><use xlink:href="#E" transform="matrix(1,0,0,1,1112.9663746286737,494.52208703332417) translate(21.574999999999996 17.1)"/><use xlink:href="#D" transform="matrix(1,0,0,1,925,526.5220870333242) translate(13.524999999999999 17.1)"/><use xlink:href="#k" transform="matrix(1,0,0,1,985,526.5220870333242) translate(-1.4250000000000043 17.1)"/><use xlink:href="#E" transform="matrix(1,0,0,1,1112.9663746286737,526.5220870333242) translate(21.574999999999996 17.1)"/><use xlink:href="#D" transform="matrix(1,0,0,1,925,558.5220870333242) translate(13.524999999999999 17.1)"/><use xlink:href="#w" transform="matrix(1,0,0,1,985,558.5220870333242) translate(10.074999999999996 17.1)"/><use xlink:href="#E" transform="matrix(1,0,0,1,1112.9663746286737,558.5220870333242) translate(21.574999999999996 17.1)"/><path d="M900 188a8 8 0 0 1 8-8h224a8 8 0 0 1 8 8v64a8 8 0 0 1-8 8H908a8 8 0 0 1-8-8z" fill="none"/><use xlink:href="#F" transform="matrix(1,0,0,1,900,180) translate(9.175000000000011 22.5)"/><use xlink:href="#G" transform="matrix(1,0,0,1,900,180) translate(60.125000000000014 22.5)"/><use xlink:href="#H" transform="matrix(1,0,0,1,900,180) translate(90.07500000000002 22.5)"/><use xlink:href="#I" transform="matrix(1,0,0,1,900,180) translate(119.87500000000001 22.5)"/><use xlink:href="#J" transform="matrix(1,0,0,1,900,180) translate(144.875 22.5)"/><use xlink:href="#K" transform="matrix(1,0,0,1,900,180) translate(28.125 44.1)"/><use xlink:href="#L" transform="matrix(1,0,0,1,900,180) translate(65.025 44.1)"/><use xlink:href="#M" transform="matrix(1,0,0,1,900,180) translate(100.025 44.1)"/><use xlink:href="#N" transform="matrix(1,0,0,1,900,180) translate(165.925 44.1)"/><use xlink:href="#O" transform="matrix(1,0,0,1,900,180) translate(17.200000000000003 65.7)"/><use xlink:href="#H" transform="matrix(1,0,0,1,900,180) translate(78.10000000000001 65.7)"/><use xlink:href="#I" transform="matrix(1,0,0,1,900,180) translate(107.9 65.7)"/><use xlink:href="#P" transform="matrix(1,0,0,1,900,180) translate(132.9 65.7)"/><use xlink:href="#L" transform="matrix(1,0,0,1,900,180) translate(158.85000000000002 65.7)"/><use xlink:href="#Q" transform="matrix(1,0,0,1,900,180) translate(193.85000000000002 65.7)"/><path d="M840.5 444.02h59.6" stroke="#3a414a" fill="none"/><path d="M840.5 454.02v-20M820.5 444.02h20" stroke="#3a414a" fill="#fff"/><path d="M919.28 454.02l-20-10 20-10" stroke="#3a414a" fill="#fff" fill-opacity="0"/><path d="M919.28 444.02h-20" stroke="#3a414a" fill="#fff"/><path d="M460 268a8 8 0 0 1 8-8h224a8 8 0 0 1 8 8v44a8 8 0 0 1-8 8H468a8 8 0 0 1-8-8z" fill="none"/><use xlink:href="#R" transform="matrix(1,0,0,1,460,260) translate(18.625 14.4)"/><use xlink:href="#S" transform="matrix(1,0,0,1,460,260) translate(34.625 14.4)"/><use xlink:href="#T" transform="matrix(1,0,0,1,460,260) translate(136.525 14.4)"/><use xlink:href="#U" transform="matrix(1,0,0,1,460,260) translate(177.425 14.4)"/><use xlink:href="#V" transform="matrix(1,0,0,1,460,260) translate(26.14999999999999 36)"/><use xlink:href="#W" transform="matrix(1,0,0,1,460,260) translate(65.1 36)"/><use xlink:href="#X" transform="matrix(1,0,0,1,460,260) translate(100.1 36)"/><use xlink:href="#Y" transform="matrix(1,0,0,1,460,260) translate(151.95 36)"/><use xlink:href="#Z" transform="matrix(1,0,0,1,460,260) translate(166.95 36)"/><use xlink:href="#O" transform="matrix(1,0,0,1,460,260) translate(18.150000000000006 57.6)"/><use xlink:href="#P" transform="matrix(1,0,0,1,460,260) translate(79.05000000000001 57.6)"/><use xlink:href="#aa" transform="matrix(1,0,0,1,460,260) translate(105.00000000000001 57.6)"/><use xlink:href="#G" transform="matrix(1,0,0,1,460,260) translate(153.95000000000002 57.6)"/><use xlink:href="#ab" transform="matrix(1,0,0,1,460,260) translate(183.9 57.6)"/><path d="M1080 335.52v-35.45a12 12 0 0 1 12-12h87.5" stroke="#3a414a" fill="none"/><path d="M1090 345.52h-20M1080 355.52v-20M1090 335.52h-20M1189.5 278.06v20M1199.5 288.06h-20M1179.5 278.06v20" stroke="#3a414a" fill="#fff"/><path d="M980 639.52v-3.5a12 12 0 0 1 12-12h74.73" stroke="#3a414a" fill="none"/><path d="M990 639.52h-20M980 659.52v-20" stroke="#3a414a" fill="#fff"/><path d="M1080.64 589.87l-12.18 18.75-7.7-21" stroke="#3a414a" fill="#fff" fill-opacity="0"/><path d="M1070.7 588.74l-2.24 19.88M1077.34 618.55c0 5.53-4.47 10-10 10-5.52 0-10-4.47-10-10 0-5.52 4.48-10 10-10 5.53 0 10 4.48 10 10" stroke="#3a414a" fill="#fff"/><path d="M1260 465.6a8 8 0 0 1 8-8h224a8 8 0 0 1 8 8v44a8 8 0 0 1-8 8h-224a8 8 0 0 1-8-8z" fill="none"/><use xlink:href="#F" transform="matrix(1,0,0,1,1260,457.5881134931934) translate(5.099999999999994 22.799999999999997)"/><use xlink:href="#O" transform="matrix(1,0,0,1,1260,457.5881134931934) translate(56.05 22.799999999999997)"/><use xlink:href="#ac" transform="matrix(1,0,0,1,1260,457.5881134931934) translate(116.95 22.799999999999997)"/><use xlink:href="#ad" transform="matrix(1,0,0,1,1260,457.5881134931934) translate(184.9 22.799999999999997)"/><use xlink:href="#ae" transform="matrix(1,0,0,1,1260,457.5881134931934) translate(204.9 22.799999999999997)"/><use xlink:href="#af" transform="matrix(1,0,0,1,1260,457.5881134931934) translate(85.55 44.4)"/><path d="M1200 632a8 8 0 0 1 8-8h224a8 8 0 0 1 8 8v84a8 8 0 0 1-8 8h-224a8 8 0 0 1-8-8z" fill="none"/><use xlink:href="#F" transform="matrix(1,0,0,1,1200,624.0110435166621) translate(16.099999999999994 21.19999999999999)"/><use xlink:href="#ag" transform="matrix(1,0,0,1,1200,624.0110435166621) translate(67.05 21.19999999999999)"/><use xlink:href="#ah" transform="matrix(1,0,0,1,1200,624.0110435166621) translate(145.95000000000002 21.19999999999999)"/><use xlink:href="#ai" transform="matrix(1,0,0,1,1200,624.0110435166621) translate(184.9 21.19999999999999)"/><use xlink:href="#aj" transform="matrix(1,0,0,1,1200,624.0110435166621) translate(30.125 42.79999999999999)"/><use xlink:href="#ak" transform="matrix(1,0,0,1,1200,624.0110435166621) translate(70.075 42.79999999999999)"/><use xlink:href="#al" transform="matrix(1,0,0,1,1200,624.0110435166621) translate(91.025 42.79999999999999)"/><use xlink:href="#am" transform="matrix(1,0,0,1,1200,624.0110435166621) translate(139.97500000000002 42.79999999999999)"/><use xlink:href="#an" transform="matrix(1,0,0,1,1200,624.0110435166621) translate(22.174999999999997 64.39999999999999)"/><use xlink:href="#H" transform="matrix(1,0,0,1,1200,624.0110435166621) translate(114.025 64.39999999999999)"/><use xlink:href="#ao" transform="matrix(1,0,0,1,1200,624.0110435166621) translate(143.825 64.39999999999999)"/><use xlink:href="#ae" transform="matrix(1,0,0,1,1200,624.0110435166621) translate(187.825 64.39999999999999)"/><use xlink:href="#O" transform="matrix(1,0,0,1,1200,624.0110435166621) translate(1.2999999999999972 86)"/><use xlink:href="#P" transform="matrix(1,0,0,1,1200,624.0110435166621) translate(62.2 86)"/><use xlink:href="#aa" transform="matrix(1,0,0,1,1200,624.0110435166621) translate(88.15 86)"/><use xlink:href="#G" transform="matrix(1,0,0,1,1200,624.0110435166621) translate(137.10000000000002 86)"/><use xlink:href="#ap" transform="matrix(1,0,0,1,1200,624.0110435166621) translate(167.05 86)"/><use xlink:href="#aq" transform="matrix(1,0,0,1,1200,624.0110435166621) translate(206.05 86)"/><path d="M1760 668a8 8 0 0 1 8-8h344a8 8 0 0 1 8 8v152a8 8 0 0 1-8 8h-344a8 8 0 0 1-8-8z" fill="#fff"/><path d="M1760 668a8 8 0 0 1 8-8h344a8 8 0 0 1 8 8v152a8 8 0 0 1-8 8h-344a8 8 0 0 1-8-8zM1760 700h360M1820 700v128M1976.13 700v128" stroke="#3a414a" fill="none"/><use xlink:href="#ar" transform="matrix(1,0,0,1,1770,660.0154700271496) translate(113.925 23.6)"/><use xlink:href="#as" transform="matrix(1,0,0,1,1770,660.0154700271496) translate(178.825 23.6)"/><use xlink:href="#j" transform="matrix(1,0,0,1,1765,702.5154700271496) translate(13 17.1)"/><use xlink:href="#at" transform="matrix(1,0,0,1,1825,702.5154700271496) translate(33.074999999999996 17.1)"/><use xlink:href="#l" transform="matrix(1,0,0,1,1981.1320408099546,702.5154700271496) translate(35.025 17.1)"/><use xlink:href="#D" transform="matrix(1,0,0,1,1765,734.5154700271496) translate(13.524999999999999 17.1)"/><use xlink:href="#s" transform="matrix(1,0,0,1,1825,734.5154700271496) translate(58.525 17.1)"/><use xlink:href="#E" transform="matrix(1,0,0,1,1981.1320408099546,734.5154700271496) translate(27.074999999999996 17.1)"/><use xlink:href="#D" transform="matrix(1,0,0,1,1765,766.5154700271496) translate(13.524999999999999 17.1)"/><use xlink:href="#w" transform="matrix(1,0,0,1,1825,766.5154700271496) translate(24.574999999999996 17.1)"/><use xlink:href="#E" transform="matrix(1,0,0,1,1981.1320408099546,766.5154700271496) translate(27.074999999999996 17.1)"/><use xlink:href="#au" transform="matrix(1,0,0,1,1825,798.5154700271496) translate(28.599999999999994 17.1)"/><use xlink:href="#av" transform="matrix(1,0,0,1,1981.1320408099546,798.5154700271496) translate(2.825000000000003 17.1)"/><path d="M1200.5 748H1720" stroke="#3a414a" fill="none"/><path d="M1200.5 758v-20M1180.5 748h20" stroke="#3a414a" fill="#fff"/><path d="M1759.28 758l-20-10 20-10" stroke="#3a414a" fill="#fff" fill-opacity="0"/><path d="M1759.28 748h-20M1739.28 748c0 5.54-4.48 10-10 10-5.53 0-10-4.46-10-10 0-5.5 4.47-10 10-10 5.52 0 10 4.5 10 10" stroke="#3a414a" fill="#fff"/><path d="M1200 768a8 8 0 0 1 8-8h224a8 8 0 0 1 8 8v84a8 8 0 0 1-8 8h-224a8 8 0 0 1-8-8z" fill="none"/><use xlink:href="#F" transform="matrix(1,0,0,1,1200,760) translate(16.099999999999994 14.4)"/><use xlink:href="#ag" transform="matrix(1,0,0,1,1200,760) translate(67.05 14.4)"/><use xlink:href="#ah" transform="matrix(1,0,0,1,1200,760) translate(145.95000000000002 14.4)"/><use xlink:href="#ai" transform="matrix(1,0,0,1,1200,760) translate(184.9 14.4)"/><use xlink:href="#aj" transform="matrix(1,0,0,1,1200,760) translate(6.150000000000006 36)"/><use xlink:href="#ak" transform="matrix(1,0,0,1,1200,760) translate(46.10000000000001 36)"/><use xlink:href="#al" transform="matrix(1,0,0,1,1200,760) translate(67.05000000000001 36)"/><use xlink:href="#aw" transform="matrix(1,0,0,1,1200,760) translate(116.00000000000001 36)"/><use xlink:href="#ax" transform="matrix(1,0,0,1,1200,760) translate(177.9 36)"/><use xlink:href="#an" transform="matrix(1,0,0,1,1200,760) translate(22.174999999999997 57.6)"/><use xlink:href="#H" transform="matrix(1,0,0,1,1200,760) translate(114.025 57.6)"/><use xlink:href="#ao" transform="matrix(1,0,0,1,1200,760) translate(143.825 57.6)"/><use xlink:href="#ae" transform="matrix(1,0,0,1,1200,760) translate(187.825 57.6)"/><use xlink:href="#ay" transform="matrix(1,0,0,1,1200,760) translate(10.675000000000011 79.20000000000002)"/><use xlink:href="#P" transform="matrix(1,0,0,1,1200,760) translate(57.625000000000014 79.20000000000002)"/><use xlink:href="#aa" transform="matrix(1,0,0,1,1200,760) translate(83.57500000000002 79.20000000000002)"/><use xlink:href="#az" transform="matrix(1,0,0,1,1200,760) translate(132.52500000000003 79.20000000000002)"/><use xlink:href="#Y" transform="matrix(1,0,0,1,1200,760) translate(171.425 79.20000000000002)"/><use xlink:href="#G" transform="matrix(1,0,0,1,1200,760) translate(186.425 79.20000000000002)"/><use xlink:href="#aA" transform="matrix(1,0,0,1,1200,760) translate(216.375 79.20000000000002)"/><use xlink:href="#aB" transform="matrix(1,0,0,1,1200,760) translate(81.55 100.80000000000001)"/><path d="M540 548a8 8 0 0 1 8-8h224a8 8 0 0 1 8 8v44a8 8 0 0 1-8 8H548a8 8 0 0 1-8-8z" fill="none"/><g><use xlink:href="#aC" transform="matrix(1,0,0,1,540,540) translate(21.14999999999999 22.799999999999997)"/><use xlink:href="#O" transform="matrix(1,0,0,1,540,540) translate(48.14999999999999 22.799999999999997)"/><use xlink:href="#aD" transform="matrix(1,0,0,1,540,540) translate(109.05 22.799999999999997)"/><use xlink:href="#aE" transform="matrix(1,0,0,1,540,540) translate(127 22.799999999999997)"/><use xlink:href="#aF" transform="matrix(1,0,0,1,540,540) translate(184.85000000000002 22.799999999999997)"/><use xlink:href="#aG" transform="matrix(1,0,0,1,540,540) translate(208.85000000000002 22.799999999999997)"/><use xlink:href="#aH" transform="matrix(1,0,0,1,540,540) translate(45.599999999999994 44.4)"/><use xlink:href="#aI" transform="matrix(1,0,0,1,540,540) translate(97.5 44.4)"/></g><path d="M1540 208a8 8 0 0 1 8-8h224a8 8 0 0 1 8 8v44a8 8 0 0 1-8 8h-224a8 8 0 0 1-8-8z" fill="none"/><g><use xlink:href="#aJ" transform="matrix(1,0,0,1,1540,200) translate(14.700000000000017 14.4)"/><use xlink:href="#aK" transform="matrix(1,0,0,1,1540,200) translate(65.65000000000002 14.4)"/><use xlink:href="#aL" transform="matrix(1,0,0,1,1540,200) translate(95.60000000000002 14.4)"/><use xlink:href="#aM" transform="matrix(1,0,0,1,1540,200) translate(125.40000000000002 14.4)"/><use xlink:href="#aN" transform="matrix(1,0,0,1,1540,200) translate(169.4 14.4)"/><use xlink:href="#aO" transform="matrix(1,0,0,1,1540,200) translate(209.35 14.4)"/><use xlink:href="#aP" transform="matrix(1,0,0,1,1540,200) translate(5.1499999999999915 36)"/><use xlink:href="#aQ" transform="matrix(1,0,0,1,1540,200) translate(54.099999999999994 36)"/><use xlink:href="#aR" transform="matrix(1,0,0,1,1540,200) translate(116 36)"/><use xlink:href="#aS" transform="matrix(1,0,0,1,1540,200) translate(176.95 36)"/><use xlink:href="#aT" transform="matrix(1,0,0,1,1540,200) translate(192.95 36)"/><use xlink:href="#aU" transform="matrix(1,0,0,1,1540,200) translate(1.674999999999983 57.6)"/><use xlink:href="#aV" transform="matrix(1,0,0,1,1540,200) translate(21.674999999999983 57.6)"/><use xlink:href="#aQ" transform="matrix(1,0,0,1,1540,200) translate(70.67499999999998 57.6)"/><use xlink:href="#aW" transform="matrix(1,0,0,1,1540,200) translate(132.575 57.6)"/><use xlink:href="#aL" transform="matrix(1,0,0,1,1540,200) translate(188.525 57.6)"/><use xlink:href="#aX" transform="matrix(1,0,0,1,1540,200) translate(218.32500000000002 57.6)"/><use xlink:href="#aY" transform="matrix(1,0,0,1,1540,200) translate(5.849999999999994 79.20000000000002)"/><use xlink:href="#aZ" transform="matrix(1,0,0,1,1540,200) translate(60.8 79.20000000000002)"/><use xlink:href="#ba" transform="matrix(1,0,0,1,1540,200) translate(79.75 79.20000000000002)"/><use xlink:href="#bb" transform="matrix(1,0,0,1,1540,200) translate(109.75 79.20000000000002)"/><use xlink:href="#bc" transform="matrix(1,0,0,1,1540,200) translate(174.65 79.20000000000002)"/></g><path d="M1800 368a8 8 0 0 1 8-8h264a8 8 0 0 1 8 8v184a8 8 0 0 1-8 8h-264a8 8 0 0 1-8-8z" fill="#fff"/><path d="M1800 368a8 8 0 0 1 8-8h264a8 8 0 0 1 8 8v184a8 8 0 0 1-8 8h-264a8 8 0 0 1-8-8zM1800 400h280M1860 400v160M1988.3 400v160" stroke="#3a414a" fill="none"/><g><use xlink:href="#ar" transform="matrix(1,0,0,1,1810,360) translate(69.625 23.6)"/><use xlink:href="#bd" transform="matrix(1,0,0,1,1810,360) translate(134.525 23.6)"/></g><g><use xlink:href="#j" transform="matrix(1,0,0,1,1805,402.5) translate(13 17.1)"/></g><g><use xlink:href="#be" transform="matrix(1,0,0,1,1865,402.5) translate(21.074999999999996 17.1)"/></g><g><use xlink:href="#l" transform="matrix(1,0,0,1,1993.2869808109385,402.5) translate(9.024999999999999 17.1)"/></g><g><use xlink:href="#D" transform="matrix(1,0,0,1,1805,434.5) translate(13.524999999999999 17.1)"/></g><g><use xlink:href="#s" transform="matrix(1,0,0,1,1865,434.5) translate(44.525 17.1)"/></g><g><use xlink:href="#E" transform="matrix(1,0,0,1,1993.2869808109385,434.5) translate(1.0749999999999957 17.1)"/></g><g><use xlink:href="#D" transform="matrix(1,0,0,1,1805,466.5) translate(13.524999999999999 17.1)"/></g><g><use xlink:href="#bf" transform="matrix(1,0,0,1,1865,466.5) translate(9.074999999999996 17.1)"/></g><g><use xlink:href="#E" transform="matrix(1,0,0,1,1993.2869808109385,466.5) translate(1.0749999999999957 17.1)"/></g><g><use xlink:href="#bg" transform="matrix(1,0,0,1,1865,498.5) translate(1.0249999999999986 17.1)"/></g><g><use xlink:href="#bh" transform="matrix(1,0,0,1,1993.2869808109385,498.5) translate(22.025 17.1)"/></g><g><use xlink:href="#D" transform="matrix(1,0,0,1,1805,530.5) translate(13.524999999999999 17.1)"/></g><g><use xlink:href="#at" transform="matrix(1,0,0,1,1865,530.5) translate(19.074999999999996 17.1)"/></g><g><use xlink:href="#bi" transform="matrix(1,0,0,1,1993.2869808109385,530.5) translate(13.024999999999999 17.1)"/></g><path d="M1526.22 288.06H1928a12 12 0 0 1 12 12V320" stroke="#3a414a" fill="none"/><path d="M1526.22 298.06v-20M1506.22 288.06h20" stroke="#3a414a" fill="#fff"/><path d="M1930 359.28l10-20 10 20" stroke="#3a414a" fill="#fff" fill-opacity="0"/><path d="M1940 359.28v-20M1950 329.28c0 5.52-4.48 10-10 10s-10-4.48-10-10c0-5.53 4.48-10 10-10s10 4.47 10 10" stroke="#3a414a" fill="#fff"/><path d="M1940 580.5v59.6" stroke="#3a414a" fill="none"/><path d="M1930 580.5h20M1940 560.5v20" stroke="#3a414a" fill="#fff"/><path d="M1930 659.3l10-20 10 20" stroke="#3a414a" fill="#fff" fill-opacity="0"/><path d="M1940 659.3v-20" stroke="#3a414a" fill="#fff"/><path d="M2140 408a8 8 0 0 1 8-8h304a8 8 0 0 1 8 8v120a8 8 0 0 1-8 8h-304a8 8 0 0 1-8-8z" fill="#fff"/><path d="M2140 408a8 8 0 0 1 8-8h304a8 8 0 0 1 8 8v120a8 8 0 0 1-8 8h-304a8 8 0 0 1-8-8zM2140 440h320M2200 440v96M2324.98 440v96" stroke="#3a414a" fill="none"/><g><use xlink:href="#bj" transform="matrix(1,0,0,1,2150,400) translate(111.55 23.6)"/></g><g><use xlink:href="#j" transform="matrix(1,0,0,1,2145,442.5) translate(13 17.1)"/></g><g><use xlink:href="#bf" transform="matrix(1,0,0,1,2205,442.5) translate(7.074999999999996 17.1)"/></g><g><use xlink:href="#l" transform="matrix(1,0,0,1,2329.978734180125,442.5) translate(31.025 17.1)"/></g><g><use xlink:href="#m" transform="matrix(1,0,0,1,2205,474.5) translate(15.575000000000003 17.1)"/></g><g><use xlink:href="#n" transform="matrix(1,0,0,1,2329.978734180125,474.5) translate(-1.1749999999999972 17.1)"/></g><g><use xlink:href="#o" transform="matrix(1,0,0,1,2205,506.5) translate(16.049999999999997 17.1)"/></g><g><use xlink:href="#n" transform="matrix(1,0,0,1,2329.978734180125,506.5) translate(-1.1749999999999972 17.1)"/></g><path d="M2100.5 480.07h19.6" stroke="#3a414a" fill="none"/><path d="M2100.5 490.07v-20M2080.5 480.07h20" stroke="#3a414a" fill="#fff"/><path d="M2139.28 490.07l-20-10 20-10" stroke="#3a414a" fill="#fff" fill-opacity="0"/><path d="M2139.28 480.07h-20" stroke="#3a414a" fill="#fff"/><path d="M1540 378a8 8 0 0 1 8-8h224a8 8 0 0 1 8 8v44a8 8 0 0 1-8 8h-224a8 8 0 0 1-8-8z" fill="none"/><g><use xlink:href="#bk" transform="matrix(1,0,0,1,1540,370.0077350135748) translate(26.749999999999986 14.4)"/><use xlink:href="#bl" transform="matrix(1,0,0,1,1540,370.0077350135748) translate(62.69999999999999 14.4)"/><use xlink:href="#bm" transform="matrix(1,0,0,1,1540,370.0077350135748) translate(127.6 14.4)"/><use xlink:href="#bn" transform="matrix(1,0,0,1,1540,370.0077350135748) translate(188.45 14.4)"/><use xlink:href="#bo" transform="matrix(1,0,0,1,1540,370.0077350135748) translate(3.174999999999983 36)"/><use xlink:href="#Y" transform="matrix(1,0,0,1,1540,370.0077350135748) translate(66.12499999999999 36)"/><use xlink:href="#bp" transform="matrix(1,0,0,1,1540,370.0077350135748) translate(81.12499999999999 36)"/><use xlink:href="#bq" transform="matrix(1,0,0,1,1540,370.0077350135748) translate(137.025 36)"/><use xlink:href="#br" transform="matrix(1,0,0,1,1540,370.0077350135748) translate(157.025 36)"/><use xlink:href="#bs" transform="matrix(1,0,0,1,1540,370.0077350135748) translate(179.925 36)"/><use xlink:href="#bt" transform="matrix(1,0,0,1,1540,370.0077350135748) translate(7.1499999999999915 57.6)"/><use xlink:href="#br" transform="matrix(1,0,0,1,1540,370.0077350135748) translate(68.1 57.6)"/><use xlink:href="#V" transform="matrix(1,0,0,1,1540,370.0077350135748) translate(90.99999999999999 57.6)"/><use xlink:href="#bu" transform="matrix(1,0,0,1,1540,370.0077350135748) translate(129.95 57.6)"/><use xlink:href="#bv" transform="matrix(1,0,0,1,1540,370.0077350135748) translate(164.95 57.6)"/><use xlink:href="#aw" transform="matrix(1,0,0,1,1540,370.0077350135748) translate(17.14999999999999 79.20000000000002)"/><use xlink:href="#W" transform="matrix(1,0,0,1,1540,370.0077350135748) translate(79.05 79.20000000000002)"/><use xlink:href="#br" transform="matrix(1,0,0,1,1540,370.0077350135748) translate(114.05 79.20000000000002)"/><use xlink:href="#bw" transform="matrix(1,0,0,1,1540,370.0077350135748) translate(136.95 79.20000000000002)"/><use xlink:href="#bx" transform="matrix(1,0,0,1,1540,370.0077350135748) translate(48.099999999999994 100.80000000000001)"/><use xlink:href="#by" transform="matrix(1,0,0,1,1540,370.0077350135748) translate(86.05 100.80000000000001)"/><use xlink:href="#bz" transform="matrix(1,0,0,1,1540,370.0077350135748) translate(157.95 100.80000000000001)"/></g><path d="M2120 288a8 8 0 0 1 8-8h224a8 8 0 0 1 8 8v44a8 8 0 0 1-8 8h-224a8 8 0 0 1-8-8z" fill="none"/><g><use xlink:href="#F" transform="matrix(1,0,0,1,2120,280) translate(1.1499999999999915 14.4)"/><use xlink:href="#bA" transform="matrix(1,0,0,1,2120,280) translate(52.099999999999994 14.4)"/><use xlink:href="#bx" transform="matrix(1,0,0,1,2120,280) translate(134 14.4)"/><use xlink:href="#bB" transform="matrix(1,0,0,1,2120,280) translate(171.95 14.4)"/><use xlink:href="#Y" transform="matrix(1,0,0,1,2120,280) translate(3.6750000000000114 36)"/><use xlink:href="#G" transform="matrix(1,0,0,1,2120,280) translate(18.67500000000001 36)"/><use xlink:href="#H" transform="matrix(1,0,0,1,2120,280) translate(48.625000000000014 36)"/><use xlink:href="#ao" transform="matrix(1,0,0,1,2120,280) translate(78.42500000000001 36)"/><use xlink:href="#bC" transform="matrix(1,0,0,1,2120,280) translate(122.42500000000001 36)"/><use xlink:href="#bD" transform="matrix(1,0,0,1,2120,280) translate(147.425 36)"/><use xlink:href="#bE" transform="matrix(1,0,0,1,2120,280) translate(192.375 36)"/><use xlink:href="#bF" transform="matrix(1,0,0,1,2120,280) translate(211.325 36)"/><use xlink:href="#bl" transform="matrix(1,0,0,1,2120,280) translate(59.62499999999999 57.6)"/><use xlink:href="#bd" transform="matrix(1,0,0,1,2120,280) translate(124.525 57.6)"/></g><defs><path fill="#a9afb8" d="M67-125c0 53 21 87 73 88 37 1 54-22 65-47l45 17C233-25 199 4 140 4 58 4 20-42 15-125 8-235 124-281 211-232c18 10 29 29 36 50l-46 12c-8-25-30-41-62-41-52 0-71 34-72 86" id="bG"/><path fill="#a9afb8" d="M133-34C117-15 103 5 69 4 32 3 11-16 11-54c-1-60 55-63 116-61 1-26-3-47-28-47-18 1-26 9-28 27l-52-2c7-38 36-58 82-57s74 22 75 68l1 82c-1 14 12 18 25 15v27c-30 8-71 5-69-32zm-48 3c29 0 43-24 42-57-32 0-66-3-65 30 0 17 8 27 23 27" id="bH"/><path fill="#a9afb8" d="M135-150c-39-12-60 13-60 57V0H25l-1-190h47c2 13-1 29 3 40 6-28 27-53 61-41v41" id="bI"/><g id="a"><use transform="matrix(0.0728395061728395,0,0,0.0728395061728395,0,0)" xlink:href="#bG"/><use transform="matrix(0.0728395061728395,0,0,0.0728395061728395,18.86543209876543,0)" xlink:href="#bH"/><use transform="matrix(0.0728395061728395,0,0,0.0728395061728395,33.43333333333333,0)" xlink:href="#bI"/></g><path fill="#a9afb8" d="M24-248c120-7 223 5 221 122C244-46 201 0 124 0H24v-248zM76-40c74 7 117-18 117-86 0-67-45-88-117-82v168" id="bJ"/><path fill="#a9afb8" d="M185-48c-13 30-37 53-82 52C43 2 14-33 14-96s30-98 90-98c62 0 83 45 84 108H66c0 31 8 55 39 56 18 0 30-7 34-22zm-45-69c5-46-57-63-70-21-2 6-4 13-4 21h74" id="bK"/><path fill="#a9afb8" d="M25 0v-261h50V0H25" id="bL"/><path fill="#a9afb8" d="M137-138c1-29-70-34-71-4 15 46 118 7 119 86 1 83-164 76-172 9l43-7c4 19 20 25 44 25 33 8 57-30 24-41C81-84 22-81 20-136c-2-80 154-74 161-7" id="bM"/><path fill="#a9afb8" d="M114-157C55-157 80-60 75 0H25v-261h50l-1 109c12-26 28-41 61-42 86-1 58 113 63 194h-50c-7-57 23-157-34-157" id="bN"/><path fill="#a9afb8" d="M25-224v-37h50v37H25zM25 0v-190h50V0H25" id="bO"/><path fill="#a9afb8" d="M135-194c53 0 70 44 70 98 0 56-19 98-73 100-31 1-45-17-59-34 3 33 2 69 2 105H25l-1-265h48c2 10 0 23 3 31 11-24 29-35 60-35zM114-30c33 0 39-31 40-66 0-38-9-64-40-64-56 0-55 130 0 130" id="bP"/><g id="b"><use transform="matrix(0.0728395061728395,0,0,0.0728395061728395,0,0)" xlink:href="#bJ"/><use transform="matrix(0.0728395061728395,0,0,0.0728395061728395,18.86543209876543,0)" xlink:href="#bK"/><use transform="matrix(0.0728395061728395,0,0,0.0728395061728395,33.43333333333333,0)" xlink:href="#bH"/><use transform="matrix(0.0728395061728395,0,0,0.0728395061728395,48.00123456790123,0)" xlink:href="#bL"/><use transform="matrix(0.0728395061728395,0,0,0.0728395061728395,55.28518518518518,0)" xlink:href="#bK"/><use transform="matrix(0.0728395061728395,0,0,0.0728395061728395,69.85308641975308,0)" xlink:href="#bI"/><use transform="matrix(0.0728395061728395,0,0,0.0728395061728395,80.05061728395061,0)" xlink:href="#bM"/><use transform="matrix(0.0728395061728395,0,0,0.0728395061728395,94.61851851851851,0)" xlink:href="#bN"/><use transform="matrix(0.0728395061728395,0,0,0.0728395061728395,110.57037037037037,0)" xlink:href="#bO"/><use transform="matrix(0.0728395061728395,0,0,0.0728395061728395,117.85432098765432,0)" xlink:href="#bP"/></g><path fill="#a9afb8" d="M24 0v-248h195v40H76v63h132v40H76v65h150V0H24" id="bQ"/><path fill="#a9afb8" d="M240-174c0 40-23 61-54 70L253 0h-59l-57-94H76V0H24v-248c93 4 217-23 216 74zM76-134c48-2 112 12 112-38 0-48-66-32-112-35v73" id="bR"/><g id="c"><use transform="matrix(0.0728395061728395,0,0,0.0728395061728395,0,0)" xlink:href="#bQ"/><use transform="matrix(0.0728395061728395,0,0,0.0728395061728395,17.48148148148148,0)" xlink:href="#bR"/><use transform="matrix(0.0728395061728395,0,0,0.0728395061728395,36.34691358024691,0)" xlink:href="#bJ"/></g><path fill="#a9afb8" d="M153-248C145-148 188 4 80 4 36 3 13-21 6-62l32-5c4 25 16 42 43 43 27 0 39-20 39-49v-147H72v-28h81" id="bS"/><path fill="#a9afb8" d="M100-194c62-1 85 37 85 99 1 63-27 99-86 99S16-35 15-95c0-66 28-99 85-99zM99-20c44 1 53-31 53-75 0-43-8-75-51-75s-53 32-53 75 10 74 51 75" id="bT"/><path fill="#a9afb8" d="M106-169C34-169 62-67 57 0H25v-261h32l-1 103c12-21 28-36 61-36 89 0 53 116 60 194h-32v-121c2-32-8-49-39-48" id="bU"/><path fill="#a9afb8" d="M117-194c89-4 53 116 60 194h-32v-121c0-31-8-49-39-48C34-167 62-67 57 0H25l-1-190h30c1 10-1 24 2 32 11-22 29-35 61-36" id="bV"/><g id="d"><use transform="matrix(0.04248971193415638,0,0,0.04248971193415638,0,0)" xlink:href="#bS"/><use transform="matrix(0.04248971193415638,0,0,0.04248971193415638,7.648148148148148,0)" xlink:href="#bT"/><use transform="matrix(0.04248971193415638,0,0,0.04248971193415638,16.14609053497942,0)" xlink:href="#bU"/><use transform="matrix(0.04248971193415638,0,0,0.04248971193415638,24.644032921810698,0)" xlink:href="#bV"/></g><path fill="#a9afb8" d="M32 76v-337h29V76H32" id="bW"/><use transform="matrix(0.04248971193415638,0,0,0.04248971193415638,0,0)" xlink:href="#bW" id="e"/><path fill="#a9afb8" d="M140-251c81 0 123 46 123 126C263-46 219 4 140 4 59 4 17-45 17-125s42-126 123-126zm0 227c63 0 89-41 89-101s-29-99-89-99c-61 0-89 39-89 99S79-25 140-24" id="bX"/><path fill="#a9afb8" d="M96-169c-40 0-48 33-48 73s9 75 48 75c24 0 41-14 43-38l32 2c-6 37-31 61-74 61-59 0-76-41-82-99-10-93 101-131 147-64 4 7 5 14 7 22l-32 3c-4-21-16-35-41-35" id="bY"/><path fill="#a9afb8" d="M59-47c-2 24 18 29 38 22v24C64 9 27 4 27-40v-127H5v-23h24l9-43h21v43h35v23H59v120" id="bZ"/><path fill="#a9afb8" d="M115-194c53 0 69 39 70 98 0 66-23 100-70 100C84 3 66-7 56-30L54 0H23l1-261h32v101c10-23 28-34 59-34zm-8 174c40 0 45-34 45-75 0-40-5-75-45-74-42 0-51 32-51 76 0 43 10 73 51 73" id="ca"/><path fill="#a9afb8" d="M100-194c63 0 86 42 84 106H49c0 40 14 67 53 68 26 1 43-12 49-29l28 8c-11 28-37 45-77 45C44 4 14-33 15-96c1-61 26-98 85-98zm52 81c6-60-76-77-97-28-3 7-6 17-6 28h103" id="cb"/><path fill="#a9afb8" d="M114-163C36-179 61-72 57 0H25l-1-190h30c1 12-1 29 2 39 6-27 23-49 58-41v29" id="cc"/><g id="f"><use transform="matrix(0.04248971193415638,0,0,0.04248971193415638,0,0)" xlink:href="#bX"/><use transform="matrix(0.04248971193415638,0,0,0.04248971193415638,11.897119341563785,0)" xlink:href="#bY"/><use transform="matrix(0.04248971193415638,0,0,0.04248971193415638,19.545267489711932,0)" xlink:href="#bZ"/><use transform="matrix(0.04248971193415638,0,0,0.04248971193415638,23.79423868312757,0)" xlink:href="#bT"/><use transform="matrix(0.04248971193415638,0,0,0.04248971193415638,32.29218106995884,0)" xlink:href="#ca"/><use transform="matrix(0.04248971193415638,0,0,0.04248971193415638,40.79012345679012,0)" xlink:href="#cb"/><use transform="matrix(0.04248971193415638,0,0,0.04248971193415638,49.288065843621396,0)" xlink:href="#cc"/></g><path fill="#a9afb8" d="M27 0v-27h64v-190l-56 39v-29l58-41h29v221h61V0H27" id="cd"/><path fill="#a9afb8" d="M54-142c48-35 137-8 131 61C196 18 31 33 14-55l32-4c7 23 22 37 52 37 35-1 51-22 54-58 4-55-73-65-99-34H22l8-134h141v27H59" id="ce"/><path fill="#a9afb8" d="M68-38c1 34 0 65-14 84H32c9-13 17-26 17-46H33v-38h35" id="cf"/><g id="g"><use transform="matrix(0.04248971193415638,0,0,0.04248971193415638,0,0)" xlink:href="#cd"/><use transform="matrix(0.04248971193415638,0,0,0.04248971193415638,8.497942386831275,0)" xlink:href="#ce"/><use transform="matrix(0.04248971193415638,0,0,0.04248971193415638,16.99588477366255,0)" xlink:href="#cf"/></g><path fill="#a9afb8" d="M101-251c82-7 93 87 43 132L82-64C71-53 59-42 53-27h129V0H18c2-99 128-94 128-182 0-28-16-43-45-43s-46 15-49 41l-32-3c6-41 34-60 81-64" id="cg"/><path fill="#a9afb8" d="M101-251c68 0 85 55 85 127S166 4 100 4C33 4 14-52 14-124c0-73 17-127 87-127zm-1 229c47 0 54-49 54-102s-4-102-53-102c-51 0-55 48-55 102 0 53 5 102 54 102" id="ch"/><path fill="#a9afb8" d="M126-127c33 6 58 20 58 59 0 88-139 92-164 29-3-8-5-16-6-25l32-3c6 27 21 44 54 44 32 0 52-15 52-46 0-38-36-46-79-43v-28c39 1 72-4 72-42 0-27-17-43-46-43-28 0-47 15-49 41l-32-3c6-42 35-63 81-64 48-1 79 21 79 65 0 36-21 52-52 59" id="ci"/><g id="h"><use transform="matrix(0.04248971193415638,0,0,0.04248971193415638,0,0)" xlink:href="#cg"/><use transform="matrix(0.04248971193415638,0,0,0.04248971193415638,8.497942386831275,0)" xlink:href="#ch"/><use transform="matrix(0.04248971193415638,0,0,0.04248971193415638,16.99588477366255,0)" xlink:href="#cg"/><use transform="matrix(0.04248971193415638,0,0,0.04248971193415638,25.493827160493822,0)" xlink:href="#ci"/></g><path fill="#3a414a" d="M185-189c-5-48-123-54-124 2 14 75 158 14 163 119 3 78-121 87-175 55-17-10-28-26-33-46l33-7c5 56 141 63 141-1 0-78-155-14-162-118-5-82 145-84 179-34 5 7 8 16 11 25" id="cj"/><path fill="#3a414a" d="M141-36C126-15 110 5 73 4 37 3 15-17 15-53c-1-64 63-63 125-63 3-35-9-54-41-54-24 1-41 7-42 31l-33-3c5-37 33-52 76-52 45 0 72 20 72 64v82c-1 20 7 32 28 27v20c-31 9-61-2-59-35zM48-53c0 20 12 33 32 33 41-3 63-29 60-74-43 2-92-5-92 41" id="ck"/><path fill="#3a414a" d="M24 0v-261h32V0H24" id="cl"/><path fill="#3a414a" d="M100-194c63 0 86 42 84 106H49c0 40 14 67 53 68 26 1 43-12 49-29l28 8c-11 28-37 45-77 45C44 4 14-33 15-96c1-61 26-98 85-98zm52 81c6-60-76-77-97-28-3 7-6 17-6 28h103" id="cm"/><path fill="#3a414a" d="M135-143c-3-34-86-38-87 0 15 53 115 12 119 90S17 21 10-45l28-5c4 36 97 45 98 0-10-56-113-15-118-90-4-57 82-63 122-42 12 7 21 19 24 35" id="cn"/><path fill="#3a414a" d="M115-194c55 1 70 41 70 98S169 2 115 4C84 4 66-9 55-30l1 105H24l-1-265h31l2 30c10-21 28-34 59-34zm-8 174c40 0 45-34 45-75s-6-73-45-74c-42 0-51 32-51 76 0 43 10 73 51 73" id="co"/><path fill="#3a414a" d="M114-163C36-179 61-72 57 0H25l-1-190h30c1 12-1 29 2 39 6-27 23-49 58-41v29" id="cp"/><path fill="#3a414a" d="M100-194c62-1 85 37 85 99 1 63-27 99-86 99S16-35 15-95c0-66 28-99 85-99zM99-20c44 1 53-31 53-75 0-43-8-75-51-75s-53 32-53 75 10 74 51 75" id="cq"/><path fill="#3a414a" d="M117-194c89-4 53 116 60 194h-32v-121c0-31-8-49-39-48C34-167 62-67 57 0H25l-1-190h30c1 10-1 24 2 32 11-22 29-35 61-36" id="cr"/><g id="i"><use transform="matrix(0.05,0,0,0.05,0,0)" xlink:href="#cj"/><use transform="matrix(0.05,0,0,0.05,12,0)" xlink:href="#ck"/><use transform="matrix(0.05,0,0,0.05,22,0)" xlink:href="#cl"/><use transform="matrix(0.05,0,0,0.05,25.950000000000003,0)" xlink:href="#cm"/><use transform="matrix(0.05,0,0,0.05,35.95,0)" xlink:href="#cn"/><use transform="matrix(0.05,0,0,0.05,44.95,0)" xlink:href="#co"/><use transform="matrix(0.05,0,0,0.05,54.95,0)" xlink:href="#cm"/><use transform="matrix(0.05,0,0,0.05,64.95,0)" xlink:href="#cp"/><use transform="matrix(0.05,0,0,0.05,70.9,0)" xlink:href="#cn"/><use transform="matrix(0.05,0,0,0.05,79.9,0)" xlink:href="#cq"/><use transform="matrix(0.05,0,0,0.05,89.9,0)" xlink:href="#cr"/></g><path fill="#3a414a" d="M30-248c87 1 191-15 191 75 0 78-77 80-158 76V0H30v-248zm33 125c57 0 124 11 124-50 0-59-68-47-124-48v98" id="cs"/><path fill="#3a414a" d="M194 0L95-120 63-95V0H30v-248h33v124l119-124h40L117-140 236 0h-42" id="ct"/><g id="j"><use transform="matrix(0.05,0,0,0.05,0,0)" xlink:href="#cs"/><use transform="matrix(0.05,0,0,0.05,12,0)" xlink:href="#ct"/></g><path fill="#3a414a" d="M-5 72V49h209v23H-5" id="cu"/><path fill="#3a414a" d="M24-231v-30h32v30H24zM24 0v-190h32V0H24" id="cv"/><path fill="#3a414a" d="M85-194c31 0 48 13 60 33l-1-100h32l1 261h-30c-2-10 0-23-3-31C134-8 116 4 85 4 32 4 16-35 15-94c0-66 23-100 70-100zm9 24c-40 0-46 34-46 75 0 40 6 74 45 74 42 0 51-32 51-76 0-42-9-74-50-73" id="cw"/><g id="k"><use transform="matrix(0.05,0,0,0.05,0,0)" xlink:href="#cn"/><use transform="matrix(0.05,0,0,0.05,9,0)" xlink:href="#ck"/><use transform="matrix(0.05,0,0,0.05,19,0)" xlink:href="#cl"/><use transform="matrix(0.05,0,0,0.05,22.95,0)" xlink:href="#cm"/><use transform="matrix(0.05,0,0,0.05,32.95,0)" xlink:href="#cn"/><use transform="matrix(0.05,0,0,0.05,41.95,0)" xlink:href="#co"/><use transform="matrix(0.05,0,0,0.05,51.95,0)" xlink:href="#cm"/><use transform="matrix(0.05,0,0,0.05,61.95,0)" xlink:href="#cp"/><use transform="matrix(0.05,0,0,0.05,67.9,0)" xlink:href="#cn"/><use transform="matrix(0.05,0,0,0.05,76.9,0)" xlink:href="#cq"/><use transform="matrix(0.05,0,0,0.05,86.9,0)" xlink:href="#cr"/><use transform="matrix(0.05,0,0,0.05,96.9,0)" xlink:href="#cu"/><use transform="matrix(0.05,0,0,0.05,106.9,0)" xlink:href="#cv"/><use transform="matrix(0.05,0,0,0.05,110.85000000000001,0)" xlink:href="#cw"/></g><path fill="#3a414a" d="M30 0v-248h187v28H63v79h144v27H63v87h162V0H30" id="cx"/><path fill="#3a414a" d="M233-177c-1 41-23 64-60 70L243 0h-38l-65-103H63V0H30v-248c88 3 205-21 203 71zM63-129c60-2 137 13 137-47 0-61-80-42-137-45v92" id="cy"/><path fill="#3a414a" d="M33 0v-248h34V0H33" id="cz"/><path fill="#3a414a" d="M205 0l-28-72H64L36 0H1l101-248h38L239 0h-34zm-38-99l-47-123c-12 45-31 82-46 123h93" id="cA"/><path fill="#3a414a" d="M30 0v-248h33v221h125V0H30" id="cB"/><g id="l"><use transform="matrix(0.05,0,0,0.05,0,0)" xlink:href="#cj"/><use transform="matrix(0.05,0,0,0.05,12,0)" xlink:href="#cx"/><use transform="matrix(0.05,0,0,0.05,24,0)" xlink:href="#cy"/><use transform="matrix(0.05,0,0,0.05,36.95,0)" xlink:href="#cz"/><use transform="matrix(0.05,0,0,0.05,41.95,0)" xlink:href="#cA"/><use transform="matrix(0.05,0,0,0.05,53.95,0)" xlink:href="#cB"/></g><path fill="#3a414a" d="M101-234c-31-9-42 10-38 44h38v23H63V0H32v-167H5v-23h27c-7-52 17-82 69-68v24" id="cC"/><path fill="#3a414a" d="M59-47c-2 24 18 29 38 22v24C64 9 27 4 27-40v-127H5v-23h24l9-43h21v43h35v23H59v120" id="cD"/><path fill="#3a414a" d="M210-169c-67 3-38 105-44 169h-31v-121c0-29-5-50-35-48C34-165 62-65 56 0H25l-1-190h30c1 10-1 24 2 32 10-44 99-50 107 0 11-21 27-35 58-36 85-2 47 119 55 194h-31v-121c0-29-5-49-35-48" id="cE"/><g id="m"><use transform="matrix(0.05,0,0,0.05,0,0)" xlink:href="#cC"/><use transform="matrix(0.05,0,0,0.05,5,0)" xlink:href="#cv"/><use transform="matrix(0.05,0,0,0.05,8.95,0)" xlink:href="#cp"/><use transform="matrix(0.05,0,0,0.05,14.899999999999999,0)" xlink:href="#cn"/><use transform="matrix(0.05,0,0,0.05,23.9,0)" xlink:href="#cD"/><use transform="matrix(0.05,0,0,0.05,28.899999999999995,0)" xlink:href="#cu"/><use transform="matrix(0.05,0,0,0.05,38.9,0)" xlink:href="#cr"/><use transform="matrix(0.05,0,0,0.05,48.9,0)" xlink:href="#ck"/><use transform="matrix(0.05,0,0,0.05,58.900000000000006,0)" xlink:href="#cE"/><use transform="matrix(0.05,0,0,0.05,73.85,0)" xlink:href="#cm"/></g><path fill="#3a414a" d="M137 0h-34L2-248h35l83 218 83-218h36" id="cF"/><path fill="#3a414a" d="M212-179c-10-28-35-45-73-45-59 0-87 40-87 99 0 60 29 101 89 101 43 0 62-24 78-52l27 14C228-24 195 4 139 4 59 4 22-46 18-125c-6-104 99-153 187-111 19 9 31 26 39 46" id="cG"/><path fill="#3a414a" d="M197 0v-115H63V0H30v-248h33v105h134v-105h34V0h-34" id="cH"/><path fill="#3a414a" d="M87 75C49 33 22-17 22-94c0-76 28-126 65-167h31c-38 41-64 92-64 168S80 34 118 75H87" id="cI"/><path fill="#3a414a" d="M27 0v-27h64v-190l-56 39v-29l58-41h29v221h61V0H27" id="cJ"/><path fill="#3a414a" d="M101-251c68 0 85 55 85 127S166 4 100 4C33 4 14-52 14-124c0-73 17-127 87-127zm-1 229c47 0 54-49 54-102s-4-102-53-102c-51 0-55 48-55 102 0 53 5 102 54 102" id="cK"/><path fill="#3a414a" d="M33-261c38 41 65 92 65 168S71 34 33 75H2C39 34 66-17 66-93S39-220 2-261h31" id="cL"/><g id="n"><use transform="matrix(0.05,0,0,0.05,0,0)" xlink:href="#cF"/><use transform="matrix(0.05,0,0,0.05,10.65,0)" xlink:href="#cA"/><use transform="matrix(0.05,0,0,0.05,22.65,0)" xlink:href="#cy"/><use transform="matrix(0.05,0,0,0.05,35.6,0)" xlink:href="#cG"/><use transform="matrix(0.05,0,0,0.05,48.550000000000004,0)" xlink:href="#cH"/><use transform="matrix(0.05,0,0,0.05,61.5,0)" xlink:href="#cA"/><use transform="matrix(0.05,0,0,0.05,73.5,0)" xlink:href="#cy"/><use transform="matrix(0.05,0,0,0.05,86.45,0)" xlink:href="#cI"/><use transform="matrix(0.05,0,0,0.05,92.4,0)" xlink:href="#cJ"/><use transform="matrix(0.05,0,0,0.05,102.4,0)" xlink:href="#cK"/><use transform="matrix(0.05,0,0,0.05,112.4,0)" xlink:href="#cK"/><use transform="matrix(0.05,0,0,0.05,122.4,0)" xlink:href="#cL"/></g><g id="o"><use transform="matrix(0.05,0,0,0.05,0,0)" xlink:href="#cl"/><use transform="matrix(0.05,0,0,0.05,3.95,0)" xlink:href="#ck"/><use transform="matrix(0.05,0,0,0.05,13.949999999999998,0)" xlink:href="#cn"/><use transform="matrix(0.05,0,0,0.05,22.95,0)" xlink:href="#cD"/><use transform="matrix(0.05,0,0,0.05,27.950000000000003,0)" xlink:href="#cu"/><use transform="matrix(0.05,0,0,0.05,37.95,0)" xlink:href="#cr"/><use transform="matrix(0.05,0,0,0.05,47.95,0)" xlink:href="#ck"/><use transform="matrix(0.05,0,0,0.05,57.95,0)" xlink:href="#cE"/><use transform="matrix(0.05,0,0,0.05,72.9,0)" xlink:href="#cm"/></g><path fill="#3a414a" d="M96-169c-40 0-48 33-48 73s9 75 48 75c24 0 41-14 43-38l32 2c-6 37-31 61-74 61-59 0-76-41-82-99-10-93 101-131 147-64 4 7 5 14 7 22l-32 3c-4-21-16-35-41-35" id="cM"/><path fill="#3a414a" d="M84 4C-5 8 30-112 23-190h32v120c0 31 7 50 39 49 72-2 45-101 50-169h31l1 190h-30c-1-10 1-25-2-33-11 22-28 36-60 37" id="cN"/><path fill="#3a414a" d="M115-194c53 0 69 39 70 98 0 66-23 100-70 100C84 3 66-7 56-30L54 0H23l1-261h32v101c10-23 28-34 59-34zm-8 174c40 0 45-34 45-75 0-40-5-75-45-74-42 0-51 32-51 76 0 43 10 73 51 73" id="cO"/><g id="p"><use transform="matrix(0.05,0,0,0.05,0,0)" xlink:href="#cM"/><use transform="matrix(0.05,0,0,0.05,9,0)" xlink:href="#cq"/><use transform="matrix(0.05,0,0,0.05,19,0)" xlink:href="#cr"/><use transform="matrix(0.05,0,0,0.05,29,0)" xlink:href="#cD"/><use transform="matrix(0.05,0,0,0.05,34,0)" xlink:href="#ck"/><use transform="matrix(0.05,0,0,0.05,44,0)" xlink:href="#cM"/><use transform="matrix(0.05,0,0,0.05,53,0)" xlink:href="#cD"/><use transform="matrix(0.05,0,0,0.05,58,0)" xlink:href="#cu"/><use transform="matrix(0.05,0,0,0.05,68,0)" xlink:href="#cr"/><use transform="matrix(0.05,0,0,0.05,78,0)" xlink:href="#cN"/><use transform="matrix(0.05,0,0,0.05,88,0)" xlink:href="#cE"/><use transform="matrix(0.05,0,0,0.05,102.95,0)" xlink:href="#cO"/><use transform="matrix(0.05,0,0,0.05,112.95,0)" xlink:href="#cm"/><use transform="matrix(0.05,0,0,0.05,122.95,0)" xlink:href="#cp"/></g><path fill="#3a414a" d="M101-251c82-7 93 87 43 132L82-64C71-53 59-42 53-27h129V0H18c2-99 128-94 128-182 0-28-16-43-45-43s-46 15-49 41l-32-3c6-41 34-60 81-64" id="cP"/><g id="q"><use transform="matrix(0.05,0,0,0.05,0,0)" xlink:href="#cF"/><use transform="matrix(0.05,0,0,0.05,10.65,0)" xlink:href="#cA"/><use transform="matrix(0.05,0,0,0.05,22.65,0)" xlink:href="#cy"/><use transform="matrix(0.05,0,0,0.05,35.6,0)" xlink:href="#cG"/><use transform="matrix(0.05,0,0,0.05,48.550000000000004,0)" xlink:href="#cH"/><use transform="matrix(0.05,0,0,0.05,61.5,0)" xlink:href="#cA"/><use transform="matrix(0.05,0,0,0.05,73.5,0)" xlink:href="#cy"/><use transform="matrix(0.05,0,0,0.05,86.45,0)" xlink:href="#cI"/><use transform="matrix(0.05,0,0,0.05,92.4,0)" xlink:href="#cP"/><use transform="matrix(0.05,0,0,0.05,102.4,0)" xlink:href="#cK"/><use transform="matrix(0.05,0,0,0.05,112.4,0)" xlink:href="#cL"/></g><g id="r"><use transform="matrix(0.05,0,0,0.05,0,0)" xlink:href="#cG"/><use transform="matrix(0.05,0,0,0.05,12.950000000000001,0)" xlink:href="#ck"/><use transform="matrix(0.05,0,0,0.05,22.950000000000003,0)" xlink:href="#cp"/></g><path fill="#3a414a" d="M190 0L58-211 59 0H30v-248h39L202-35l-2-213h31V0h-41" id="cQ"/><g id="s"><use transform="matrix(0.05,0,0,0.05,0,0)" xlink:href="#cF"/><use transform="matrix(0.05,0,0,0.05,12,0)" xlink:href="#cz"/><use transform="matrix(0.05,0,0,0.05,17,0)" xlink:href="#cQ"/></g><path fill="#3a414a" d="M240 0l2-218c-23 76-54 145-80 218h-23L58-218 59 0H30v-248h44l77 211c21-75 51-140 76-211h43V0h-30" id="cR"/><path fill="#3a414a" d="M143 0L79-87 56-68V0H24v-261h32v163l83-92h37l-77 82L181 0h-38" id="cS"/><g id="t"><use transform="matrix(0.05,0,0,0.05,0,0)" xlink:href="#cR"/><use transform="matrix(0.05,0,0,0.05,14.950000000000001,0)" xlink:href="#ck"/><use transform="matrix(0.05,0,0,0.05,24.950000000000003,0)" xlink:href="#cS"/><use transform="matrix(0.05,0,0,0.05,33.95,0)" xlink:href="#cm"/></g><g id="u"><use transform="matrix(0.05,0,0,0.05,0,0)" xlink:href="#cR"/><use transform="matrix(0.05,0,0,0.05,14.950000000000001,0)" xlink:href="#cq"/><use transform="matrix(0.05,0,0,0.05,24.950000000000003,0)" xlink:href="#cw"/><use transform="matrix(0.05,0,0,0.05,34.95,0)" xlink:href="#cm"/><use transform="matrix(0.05,0,0,0.05,44.95,0)" xlink:href="#cl"/></g><g id="v"><use transform="matrix(0.05,0,0,0.05,0,0)" xlink:href="#cG"/><use transform="matrix(0.05,0,0,0.05,12.950000000000001,0)" xlink:href="#cN"/><use transform="matrix(0.05,0,0,0.05,22.950000000000003,0)" xlink:href="#cn"/><use transform="matrix(0.05,0,0,0.05,31.950000000000003,0)" xlink:href="#cD"/><use transform="matrix(0.05,0,0,0.05,36.95,0)" xlink:href="#cq"/><use transform="matrix(0.05,0,0,0.05,46.95,0)" xlink:href="#cE"/><use transform="matrix(0.05,0,0,0.05,61.900000000000006,0)" xlink:href="#cm"/><use transform="matrix(0.05,0,0,0.05,71.9,0)" xlink:href="#cp"/></g><g id="w"><use transform="matrix(0.05,0,0,0.05,0,0)" xlink:href="#cM"/><use transform="matrix(0.05,0,0,0.05,9,0)" xlink:href="#cN"/><use transform="matrix(0.05,0,0,0.05,19,0)" xlink:href="#cn"/><use transform="matrix(0.05,0,0,0.05,28,0)" xlink:href="#cD"/><use transform="matrix(0.05,0,0,0.05,33,0)" xlink:href="#cq"/><use transform="matrix(0.05,0,0,0.05,43,0)" xlink:href="#cE"/><use transform="matrix(0.05,0,0,0.05,57.95,0)" xlink:href="#cm"/><use transform="matrix(0.05,0,0,0.05,67.95,0)" xlink:href="#cp"/><use transform="matrix(0.05,0,0,0.05,73.9,0)" xlink:href="#cu"/><use transform="matrix(0.05,0,0,0.05,83.9,0)" xlink:href="#cv"/><use transform="matrix(0.05,0,0,0.05,87.85000000000001,0)" xlink:href="#cw"/></g><path fill="#3a414a" d="M108 0H70L1-190h34L89-25l56-165h34" id="cT"/><g id="x"><use transform="matrix(0.05,0,0,0.05,0,0)" xlink:href="#cz"/><use transform="matrix(0.05,0,0,0.05,5,0)" xlink:href="#cr"/><use transform="matrix(0.05,0,0,0.05,15,0)" xlink:href="#cT"/><use transform="matrix(0.05,0,0,0.05,24,0)" xlink:href="#cq"/><use transform="matrix(0.05,0,0,0.05,34,0)" xlink:href="#cv"/><use transform="matrix(0.05,0,0,0.05,37.95,0)" xlink:href="#cM"/><use transform="matrix(0.05,0,0,0.05,46.95,0)" xlink:href="#cm"/></g><g id="y"><use transform="matrix(0.05,0,0,0.05,0,0)" xlink:href="#cv"/><use transform="matrix(0.05,0,0,0.05,3.95,0)" xlink:href="#cr"/><use transform="matrix(0.05,0,0,0.05,13.949999999999998,0)" xlink:href="#cT"/><use transform="matrix(0.05,0,0,0.05,22.95,0)" xlink:href="#cq"/><use transform="matrix(0.05,0,0,0.05,32.95,0)" xlink:href="#cv"/><use transform="matrix(0.05,0,0,0.05,36.900000000000006,0)" xlink:href="#cM"/><use transform="matrix(0.05,0,0,0.05,45.900000000000006,0)" xlink:href="#cm"/><use transform="matrix(0.05,0,0,0.05,55.900000000000006,0)" xlink:href="#cu"/><use transform="matrix(0.05,0,0,0.05,65.9,0)" xlink:href="#cv"/><use transform="matrix(0.05,0,0,0.05,69.85000000000001,0)" xlink:href="#cw"/></g><g id="z"><use transform="matrix(0.05,0,0,0.05,0,0)" xlink:href="#cw"/><use transform="matrix(0.05,0,0,0.05,10,0)" xlink:href="#ck"/><use transform="matrix(0.05,0,0,0.05,20,0)" xlink:href="#cD"/><use transform="matrix(0.05,0,0,0.05,25,0)" xlink:href="#cm"/></g><path fill="#3a414a" d="M30-248c118-7 216 8 213 122C240-48 200 0 122 0H30v-248zM63-27c89 8 146-16 146-99s-60-101-146-95v194" id="cU"/><path fill="#3a414a" d="M127-220V0H93v-220H8v-28h204v28h-85" id="cV"/><g id="A"><use transform="matrix(0.05,0,0,0.05,0,0)" xlink:href="#cU"/><use transform="matrix(0.05,0,0,0.05,12.950000000000001,0)" xlink:href="#cA"/><use transform="matrix(0.05,0,0,0.05,23.6,0)" xlink:href="#cV"/><use transform="matrix(0.05,0,0,0.05,34.550000000000004,0)" xlink:href="#cx"/></g><g id="B"><use transform="matrix(0.05,0,0,0.05,0,0)" xlink:href="#cM"/><use transform="matrix(0.05,0,0,0.05,9,0)" xlink:href="#cq"/><use transform="matrix(0.05,0,0,0.05,19,0)" xlink:href="#cn"/><use transform="matrix(0.05,0,0,0.05,28,0)" xlink:href="#cD"/></g><path fill="#3a414a" d="M232-93c-1 65-40 97-104 97C67 4 28-28 28-90v-158h33c8 89-33 224 67 224 102 0 64-133 71-224h33v155" id="cW"/><path fill="#3a414a" d="M68-38c1 34 0 65-14 84H32c9-13 17-26 17-46H33v-38h35" id="cX"/><g id="C"><use transform="matrix(0.05,0,0,0.05,0,0)" xlink:href="#cQ"/><use transform="matrix(0.05,0,0,0.05,12.950000000000001,0)" xlink:href="#cW"/><use transform="matrix(0.05,0,0,0.05,25.900000000000002,0)" xlink:href="#cR"/><use transform="matrix(0.05,0,0,0.05,40.85,0)" xlink:href="#cx"/><use transform="matrix(0.05,0,0,0.05,52.85,0)" xlink:href="#cy"/><use transform="matrix(0.05,0,0,0.05,65.8,0)" xlink:href="#cz"/><use transform="matrix(0.05,0,0,0.05,70.8,0)" xlink:href="#cG"/><use transform="matrix(0.05,0,0,0.05,83.75,0)" xlink:href="#cI"/><use transform="matrix(0.05,0,0,0.05,89.7,0)" xlink:href="#cJ"/><use transform="matrix(0.05,0,0,0.05,99.7,0)" xlink:href="#cK"/><use transform="matrix(0.05,0,0,0.05,109.7,0)" xlink:href="#cX"/><use transform="matrix(0.05,0,0,0.05,114.7,0)" xlink:href="#cP"/><use transform="matrix(0.05,0,0,0.05,124.7,0)" xlink:href="#cL"/></g><path fill="#3a414a" d="M63-220v92h138v28H63V0H30v-248h175v28H63" id="cY"/><g id="D"><use transform="matrix(0.05,0,0,0.05,0,0)" xlink:href="#cY"/><use transform="matrix(0.05,0,0,0.05,10.950000000000001,0)" xlink:href="#ct"/></g><path fill="#3a414a" d="M143 4C61 4 22-44 18-125c-5-107 100-154 193-111 17 8 29 25 37 43l-32 9c-13-25-37-40-76-40-61 0-88 39-88 99 0 61 29 100 91 101 35 0 62-11 79-27v-45h-74v-28h105v86C228-13 192 4 143 4" id="cZ"/><g id="E"><use transform="matrix(0.05,0,0,0.05,0,0)" xlink:href="#cz"/><use transform="matrix(0.05,0,0,0.05,5,0)" xlink:href="#cQ"/><use transform="matrix(0.05,0,0,0.05,17.950000000000003,0)" xlink:href="#cV"/><use transform="matrix(0.05,0,0,0.05,28.900000000000006,0)" xlink:href="#cx"/><use transform="matrix(0.05,0,0,0.05,40.900000000000006,0)" xlink:href="#cZ"/><use transform="matrix(0.05,0,0,0.05,54.900000000000006,0)" xlink:href="#cx"/><use transform="matrix(0.05,0,0,0.05,66.9,0)" xlink:href="#cy"/></g><path fill="#3a414a" d="M179-190L93 31C79 59 56 82 12 73V49c39 6 53-20 64-50L1-190h34L92-34l54-156h33" id="da"/><g id="F"><use transform="matrix(0.05,0,0,0.05,0,0)" xlink:href="#cx"/><use transform="matrix(0.05,0,0,0.05,12,0)" xlink:href="#cT"/><use transform="matrix(0.05,0,0,0.05,21,0)" xlink:href="#cm"/><use transform="matrix(0.05,0,0,0.05,31,0)" xlink:href="#cp"/><use transform="matrix(0.05,0,0,0.05,36.95,0)" xlink:href="#da"/></g><g id="G"><use transform="matrix(0.05,0,0,0.05,0,0)" xlink:href="#cM"/><use transform="matrix(0.05,0,0,0.05,9,0)" xlink:href="#ck"/><use transform="matrix(0.05,0,0,0.05,19,0)" xlink:href="#cp"/></g><path fill="#3a414a" d="M206 0h-36l-40-164L89 0H53L-1-190h32L70-26l43-164h34l41 164 42-164h31" id="db"/><g id="H"><use transform="matrix(0.05,0,0,0.05,0,0)" xlink:href="#db"/><use transform="matrix(0.05,0,0,0.05,12.950000000000001,0)" xlink:href="#cv"/><use transform="matrix(0.05,0,0,0.05,16.900000000000002,0)" xlink:href="#cl"/><use transform="matrix(0.05,0,0,0.05,20.85,0)" xlink:href="#cl"/></g><g id="I"><use transform="matrix(0.05,0,0,0.05,0,0)" xlink:href="#cO"/><use transform="matrix(0.05,0,0,0.05,10,0)" xlink:href="#cm"/></g><g id="J"><use transform="matrix(0.05,0,0,0.05,0,0)" xlink:href="#ck"/><use transform="matrix(0.05,0,0,0.05,10,0)" xlink:href="#cn"/><use transform="matrix(0.05,0,0,0.05,19,0)" xlink:href="#cn"/><use transform="matrix(0.05,0,0,0.05,28,0)" xlink:href="#cq"/><use transform="matrix(0.05,0,0,0.05,38,0)" xlink:href="#cM"/><use transform="matrix(0.05,0,0,0.05,47,0)" xlink:href="#cv"/><use transform="matrix(0.05,0,0,0.05,50.95,0)" xlink:href="#ck"/><use transform="matrix(0.05,0,0,0.05,60.95,0)" xlink:href="#cD"/><use transform="matrix(0.05,0,0,0.05,65.95,0)" xlink:href="#cm"/><use transform="matrix(0.05,0,0,0.05,75.95,0)" xlink:href="#cw"/></g><path fill="#3a414a" d="M106-169C34-169 62-67 57 0H25v-261h32l-1 103c12-21 28-36 61-36 89 0 53 116 60 194h-32v-121c2-32-8-49-39-48" id="dc"/><g id="K"><use transform="matrix(0.05,0,0,0.05,0,0)" xlink:href="#db"/><use transform="matrix(0.05,0,0,0.05,12.950000000000001,0)" xlink:href="#cv"/><use transform="matrix(0.05,0,0,0.05,16.900000000000002,0)" xlink:href="#cD"/><use transform="matrix(0.05,0,0,0.05,21.900000000000002,0)" xlink:href="#dc"/></g><g id="L"><use transform="matrix(0.05,0,0,0.05,0,0)" xlink:href="#cq"/><use transform="matrix(0.05,0,0,0.05,10,0)" xlink:href="#cr"/><use transform="matrix(0.05,0,0,0.05,20,0)" xlink:href="#cm"/></g><path fill="#3a414a" d="M33 0v-38h34V0H33" id="dd"/><g id="M"><use transform="matrix(0.05,0,0,0.05,0,0)" xlink:href="#cv"/><use transform="matrix(0.05,0,0,0.05,3.95,0)" xlink:href="#cr"/><use transform="matrix(0.05,0,0,0.05,13.949999999999998,0)" xlink:href="#cT"/><use transform="matrix(0.05,0,0,0.05,22.95,0)" xlink:href="#cq"/><use transform="matrix(0.05,0,0,0.05,32.95,0)" xlink:href="#cv"/><use transform="matrix(0.05,0,0,0.05,36.900000000000006,0)" xlink:href="#cM"/><use transform="matrix(0.05,0,0,0.05,45.900000000000006,0)" xlink:href="#cm"/><use transform="matrix(0.05,0,0,0.05,55.900000000000006,0)" xlink:href="#dd"/></g><g id="N"><use transform="matrix(0.05,0,0,0.05,0,0)" xlink:href="#cx"/><use transform="matrix(0.05,0,0,0.05,12,0)" xlink:href="#cT"/><use transform="matrix(0.05,0,0,0.05,21,0)" xlink:href="#cm"/><use transform="matrix(0.05,0,0,0.05,31,0)" xlink:href="#cp"/><use transform="matrix(0.05,0,0,0.05,36.95,0)" xlink:href="#da"/></g><g id="O"><use transform="matrix(0.05,0,0,0.05,0,0)" xlink:href="#cv"/><use transform="matrix(0.05,0,0,0.05,3.95,0)" xlink:href="#cr"/><use transform="matrix(0.05,0,0,0.05,13.949999999999998,0)" xlink:href="#cT"/><use transform="matrix(0.05,0,0,0.05,22.95,0)" xlink:href="#cq"/><use transform="matrix(0.05,0,0,0.05,32.95,0)" xlink:href="#cv"/><use transform="matrix(0.05,0,0,0.05,36.900000000000006,0)" xlink:href="#cM"/><use transform="matrix(0.05,0,0,0.05,45.900000000000006,0)" xlink:href="#cm"/></g><g id="P"><use transform="matrix(0.05,0,0,0.05,0,0)" xlink:href="#cC"/><use transform="matrix(0.05,0,0,0.05,5,0)" xlink:href="#cq"/><use transform="matrix(0.05,0,0,0.05,15,0)" xlink:href="#cp"/></g><g id="Q"><use transform="matrix(0.05,0,0,0.05,0,0)" xlink:href="#cM"/><use transform="matrix(0.05,0,0,0.05,9,0)" xlink:href="#ck"/><use transform="matrix(0.05,0,0,0.05,19,0)" xlink:href="#cp"/><use transform="matrix(0.05,0,0,0.05,23.95,0)" xlink:href="#dd"/></g><use transform="matrix(0.05,0,0,0.05,0,0)" xlink:href="#cA" id="R"/><g id="S"><use transform="matrix(0.05,0,0,0.05,0,0)" xlink:href="#cn"/><use transform="matrix(0.05,0,0,0.05,9,0)" xlink:href="#ck"/><use transform="matrix(0.05,0,0,0.05,19,0)" xlink:href="#cl"/><use transform="matrix(0.05,0,0,0.05,22.95,0)" xlink:href="#cm"/><use transform="matrix(0.05,0,0,0.05,32.95,0)" xlink:href="#cn"/><use transform="matrix(0.05,0,0,0.05,41.95,0)" xlink:href="#co"/><use transform="matrix(0.05,0,0,0.05,51.95,0)" xlink:href="#cm"/><use transform="matrix(0.05,0,0,0.05,61.95,0)" xlink:href="#cp"/><use transform="matrix(0.05,0,0,0.05,67.9,0)" xlink:href="#cn"/><use transform="matrix(0.05,0,0,0.05,76.9,0)" xlink:href="#cq"/><use transform="matrix(0.05,0,0,0.05,86.9,0)" xlink:href="#cr"/></g><g id="T"><use transform="matrix(0.05,0,0,0.05,0,0)" xlink:href="#cn"/><use transform="matrix(0.05,0,0,0.05,9,0)" xlink:href="#cm"/><use transform="matrix(0.05,0,0,0.05,19,0)" xlink:href="#cl"/><use transform="matrix(0.05,0,0,0.05,22.95,0)" xlink:href="#cl"/><use transform="matrix(0.05,0,0,0.05,26.899999999999995,0)" xlink:href="#cn"/></g><g id="U"><use transform="matrix(0.05,0,0,0.05,0,0)" xlink:href="#cE"/><use transform="matrix(0.05,0,0,0.05,14.950000000000001,0)" xlink:href="#ck"/><use transform="matrix(0.05,0,0,0.05,24.950000000000003,0)" xlink:href="#cr"/><use transform="matrix(0.05,0,0,0.05,34.95,0)" xlink:href="#da"/></g><g id="V"><use transform="matrix(0.05,0,0,0.05,0,0)" xlink:href="#cM"/><use transform="matrix(0.05,0,0,0.05,9,0)" xlink:href="#ck"/><use transform="matrix(0.05,0,0,0.05,19,0)" xlink:href="#cp"/><use transform="matrix(0.05,0,0,0.05,24.95,0)" xlink:href="#cn"/></g><g id="W"><use transform="matrix(0.05,0,0,0.05,0,0)" xlink:href="#ck"/><use transform="matrix(0.05,0,0,0.05,10,0)" xlink:href="#cr"/><use transform="matrix(0.05,0,0,0.05,20,0)" xlink:href="#cw"/></g><g id="X"><use transform="matrix(0.05,0,0,0.05,0,0)" xlink:href="#db"/><use transform="matrix(0.05,0,0,0.05,12.950000000000001,0)" xlink:href="#cp"/><use transform="matrix(0.05,0,0,0.05,18.900000000000002,0)" xlink:href="#cv"/><use transform="matrix(0.05,0,0,0.05,22.85,0)" xlink:href="#cD"/><use transform="matrix(0.05,0,0,0.05,27.85,0)" xlink:href="#cm"/><use transform="matrix(0.05,0,0,0.05,37.85,0)" xlink:href="#cn"/></g><use transform="matrix(0.05,0,0,0.05,0,0)" xlink:href="#ck" id="Y"/><path fill="#3a414a" d="M177-190C167-65 218 103 67 71c-23-6-38-20-44-43l32-5c15 47 100 32 89-28v-30C133-14 115 1 83 1 29 1 15-40 15-95c0-56 16-97 71-98 29-1 48 16 59 35 1-10 0-23 2-32h30zM94-22c36 0 50-32 50-73 0-42-14-75-50-75-39 0-46 34-46 75s6 73 46 73" id="de"/><g id="Z"><use transform="matrix(0.05,0,0,0.05,0,0)" xlink:href="#cn"/><use transform="matrix(0.05,0,0,0.05,9,0)" xlink:href="#cv"/><use transform="matrix(0.05,0,0,0.05,12.949999999999998,0)" xlink:href="#cr"/><use transform="matrix(0.05,0,0,0.05,22.95,0)" xlink:href="#de"/><use transform="matrix(0.05,0,0,0.05,32.95,0)" xlink:href="#cl"/><use transform="matrix(0.05,0,0,0.05,36.900000000000006,0)" xlink:href="#cm"/></g><g id="aa"><use transform="matrix(0.05,0,0,0.05,0,0)" xlink:href="#cm"/><use transform="matrix(0.05,0,0,0.05,10,0)" xlink:href="#cT"/><use transform="matrix(0.05,0,0,0.05,19,0)" xlink:href="#cm"/><use transform="matrix(0.05,0,0,0.05,29,0)" xlink:href="#cp"/><use transform="matrix(0.05,0,0,0.05,34.95,0)" xlink:href="#da"/></g><g id="ab"><use transform="matrix(0.05,0,0,0.05,0,0)" xlink:href="#cn"/><use transform="matrix(0.05,0,0,0.05,9,0)" xlink:href="#cq"/><use transform="matrix(0.05,0,0,0.05,19,0)" xlink:href="#cl"/><use transform="matrix(0.05,0,0,0.05,22.95,0)" xlink:href="#cw"/><use transform="matrix(0.05,0,0,0.05,32.95,0)" xlink:href="#dd"/></g><g id="ac"><use transform="matrix(0.05,0,0,0.05,0,0)" xlink:href="#cO"/><use transform="matrix(0.05,0,0,0.05,10,0)" xlink:href="#cm"/><use transform="matrix(0.05,0,0,0.05,20,0)" xlink:href="#cl"/><use transform="matrix(0.05,0,0,0.05,23.95,0)" xlink:href="#cq"/><use transform="matrix(0.05,0,0,0.05,33.95,0)" xlink:href="#cr"/><use transform="matrix(0.05,0,0,0.05,43.95,0)" xlink:href="#de"/><use transform="matrix(0.05,0,0,0.05,53.95,0)" xlink:href="#cn"/></g><g id="ad"><use transform="matrix(0.05,0,0,0.05,0,0)" xlink:href="#cD"/><use transform="matrix(0.05,0,0,0.05,5,0)" xlink:href="#cq"/></g><g id="ae"><use transform="matrix(0.05,0,0,0.05,0,0)" xlink:href="#cq"/><use transform="matrix(0.05,0,0,0.05,10,0)" xlink:href="#cr"/><use transform="matrix(0.05,0,0,0.05,20,0)" xlink:href="#cm"/></g><g id="af"><use transform="matrix(0.05,0,0,0.05,0,0)" xlink:href="#cM"/><use transform="matrix(0.05,0,0,0.05,9,0)" xlink:href="#cN"/><use transform="matrix(0.05,0,0,0.05,19,0)" xlink:href="#cD"/><use transform="matrix(0.05,0,0,0.05,24,0)" xlink:href="#cq"/><use transform="matrix(0.05,0,0,0.05,34,0)" xlink:href="#cE"/><use transform="matrix(0.05,0,0,0.05,48.95,0)" xlink:href="#cm"/><use transform="matrix(0.05,0,0,0.05,58.95,0)" xlink:href="#cp"/><use transform="matrix(0.05,0,0,0.05,63.900000000000006,0)" xlink:href="#dd"/></g><g id="ag"><use transform="matrix(0.05,0,0,0.05,0,0)" xlink:href="#cM"/><use transform="matrix(0.05,0,0,0.05,9,0)" xlink:href="#cN"/><use transform="matrix(0.05,0,0,0.05,19,0)" xlink:href="#cn"/><use transform="matrix(0.05,0,0,0.05,28,0)" xlink:href="#cD"/><use transform="matrix(0.05,0,0,0.05,33,0)" xlink:href="#cq"/><use transform="matrix(0.05,0,0,0.05,43,0)" xlink:href="#cE"/><use transform="matrix(0.05,0,0,0.05,57.95,0)" xlink:href="#cm"/><use transform="matrix(0.05,0,0,0.05,67.95,0)" xlink:href="#cp"/></g><g id="ah"><use transform="matrix(0.05,0,0,0.05,0,0)" xlink:href="#cE"/><use transform="matrix(0.05,0,0,0.05,14.950000000000001,0)" xlink:href="#ck"/><use transform="matrix(0.05,0,0,0.05,24.950000000000003,0)" xlink:href="#da"/></g><g id="ai"><use transform="matrix(0.05,0,0,0.05,0,0)" xlink:href="#dc"/><use transform="matrix(0.05,0,0,0.05,10,0)" xlink:href="#ck"/><use transform="matrix(0.05,0,0,0.05,20,0)" xlink:href="#cT"/><use transform="matrix(0.05,0,0,0.05,29,0)" xlink:href="#cm"/></g><path fill="#3a414a" d="M9 0v-24l116-142H16v-24h144v24L44-24h123V0H9" id="df"/><g id="aj"><use transform="matrix(0.05,0,0,0.05,0,0)" xlink:href="#df"/><use transform="matrix(0.05,0,0,0.05,9,0)" xlink:href="#cm"/><use transform="matrix(0.05,0,0,0.05,19,0)" xlink:href="#cp"/><use transform="matrix(0.05,0,0,0.05,24.95,0)" xlink:href="#cq"/></g><g id="ak"><use transform="matrix(0.05,0,0,0.05,0,0)" xlink:href="#cq"/><use transform="matrix(0.05,0,0,0.05,10,0)" xlink:href="#cp"/></g><g id="al"><use transform="matrix(0.05,0,0,0.05,0,0)" xlink:href="#cE"/><use transform="matrix(0.05,0,0,0.05,14.950000000000001,0)" xlink:href="#ck"/><use transform="matrix(0.05,0,0,0.05,24.950000000000003,0)" xlink:href="#cr"/><use transform="matrix(0.05,0,0,0.05,34.95,0)" xlink:href="#da"/></g><g id="am"><use transform="matrix(0.05,0,0,0.05,0,0)" xlink:href="#cv"/><use transform="matrix(0.05,0,0,0.05,3.95,0)" xlink:href="#cr"/><use transform="matrix(0.05,0,0,0.05,13.949999999999998,0)" xlink:href="#cT"/><use transform="matrix(0.05,0,0,0.05,22.95,0)" xlink:href="#cq"/><use transform="matrix(0.05,0,0,0.05,32.95,0)" xlink:href="#cM"/><use transform="matrix(0.05,0,0,0.05,41.95,0)" xlink:href="#cv"/><use transform="matrix(0.05,0,0,0.05,45.900000000000006,0)" xlink:href="#cm"/><use transform="matrix(0.05,0,0,0.05,55.900000000000006,0)" xlink:href="#cn"/><use transform="matrix(0.05,0,0,0.05,64.9,0)" xlink:href="#dd"/></g><g id="an"><use transform="matrix(0.05,0,0,0.05,0,0)" xlink:href="#cG"/><use transform="matrix(0.05,0,0,0.05,12.950000000000001,0)" xlink:href="#cN"/><use transform="matrix(0.05,0,0,0.05,22.950000000000003,0)" xlink:href="#cn"/><use transform="matrix(0.05,0,0,0.05,31.950000000000003,0)" xlink:href="#cD"/><use transform="matrix(0.05,0,0,0.05,36.95,0)" xlink:href="#cq"/><use transform="matrix(0.05,0,0,0.05,46.95,0)" xlink:href="#cE"/><use transform="matrix(0.05,0,0,0.05,61.900000000000006,0)" xlink:href="#cm"/><use transform="matrix(0.05,0,0,0.05,71.9,0)" xlink:href="#cp"/><use transform="matrix(0.05,0,0,0.05,77.85000000000001,0)" xlink:href="#cn"/></g><g id="ao"><use transform="matrix(0.05,0,0,0.05,0,0)" xlink:href="#dc"/><use transform="matrix(0.05,0,0,0.05,10,0)" xlink:href="#ck"/><use transform="matrix(0.05,0,0,0.05,20,0)" xlink:href="#cT"/><use transform="matrix(0.05,0,0,0.05,29,0)" xlink:href="#cm"/></g><g id="ap"><use transform="matrix(0.05,0,0,0.05,0,0)" xlink:href="#cD"/><use transform="matrix(0.05,0,0,0.05,5,0)" xlink:href="#dc"/><use transform="matrix(0.05,0,0,0.05,15,0)" xlink:href="#cm"/><use transform="matrix(0.05,0,0,0.05,25,0)" xlink:href="#da"/></g><g id="aq"><use transform="matrix(0.05,0,0,0.05,0,0)" xlink:href="#cO"/><use transform="matrix(0.05,0,0,0.05,10,0)" xlink:href="#cN"/><use transform="matrix(0.05,0,0,0.05,20,0)" xlink:href="#da"/><use transform="matrix(0.05,0,0,0.05,27.649999999999995,0)" xlink:href="#dd"/></g><g id="ar"><use transform="matrix(0.05,0,0,0.05,0,0)" xlink:href="#cj"/><use transform="matrix(0.05,0,0,0.05,12,0)" xlink:href="#cm"/><use transform="matrix(0.05,0,0,0.05,22,0)" xlink:href="#cp"/><use transform="matrix(0.05,0,0,0.05,27.950000000000003,0)" xlink:href="#cT"/><use transform="matrix(0.05,0,0,0.05,36.95,0)" xlink:href="#cv"/><use transform="matrix(0.05,0,0,0.05,40.900000000000006,0)" xlink:href="#cM"/><use transform="matrix(0.05,0,0,0.05,49.900000000000006,0)" xlink:href="#cm"/></g><g id="as"><use transform="matrix(0.05,0,0,0.05,0,0)" xlink:href="#cV"/><use transform="matrix(0.05,0,0,0.05,10.3,0)" xlink:href="#cv"/><use transform="matrix(0.05,0,0,0.05,14.25,0)" xlink:href="#cM"/><use transform="matrix(0.05,0,0,0.05,23.25,0)" xlink:href="#cS"/><use transform="matrix(0.05,0,0,0.05,32.25,0)" xlink:href="#cm"/><use transform="matrix(0.05,0,0,0.05,42.25,0)" xlink:href="#cD"/></g><g id="at"><use transform="matrix(0.05,0,0,0.05,0,0)" xlink:href="#cn"/><use transform="matrix(0.05,0,0,0.05,9,0)" xlink:href="#cm"/><use transform="matrix(0.05,0,0,0.05,19,0)" xlink:href="#cp"/><use transform="matrix(0.05,0,0,0.05,24.95,0)" xlink:href="#cT"/><use transform="matrix(0.05,0,0,0.05,33.95,0)" xlink:href="#cv"/><use transform="matrix(0.05,0,0,0.05,37.900000000000006,0)" xlink:href="#cM"/><use transform="matrix(0.05,0,0,0.05,46.900000000000006,0)" xlink:href="#cm"/><use transform="matrix(0.05,0,0,0.05,56.900000000000006,0)" xlink:href="#cu"/><use transform="matrix(0.05,0,0,0.05,66.9,0)" xlink:href="#cv"/><use transform="matrix(0.05,0,0,0.05,70.85000000000001,0)" xlink:href="#cw"/></g><g id="au"><use transform="matrix(0.05,0,0,0.05,0,0)" xlink:href="#cU"/><use transform="matrix(0.05,0,0,0.05,12.950000000000001,0)" xlink:href="#cm"/><use transform="matrix(0.05,0,0,0.05,22.950000000000003,0)" xlink:href="#cn"/><use transform="matrix(0.05,0,0,0.05,31.950000000000003,0)" xlink:href="#cM"/><use transform="matrix(0.05,0,0,0.05,40.95,0)" xlink:href="#cp"/><use transform="matrix(0.05,0,0,0.05,46.900000000000006,0)" xlink:href="#cv"/><use transform="matrix(0.05,0,0,0.05,50.85000000000001,0)" xlink:href="#co"/><use transform="matrix(0.05,0,0,0.05,60.85,0)" xlink:href="#cD"/><use transform="matrix(0.05,0,0,0.05,65.85000000000001,0)" xlink:href="#cv"/><use transform="matrix(0.05,0,0,0.05,69.80000000000001,0)" xlink:href="#cq"/><use transform="matrix(0.05,0,0,0.05,79.80000000000001,0)" xlink:href="#cr"/></g><g id="av"><use transform="matrix(0.05,0,0,0.05,0,0)" xlink:href="#cF"/><use transform="matrix(0.05,0,0,0.05,10.65,0)" xlink:href="#cA"/><use transform="matrix(0.05,0,0,0.05,22.65,0)" xlink:href="#cy"/><use transform="matrix(0.05,0,0,0.05,35.6,0)" xlink:href="#cG"/><use transform="matrix(0.05,0,0,0.05,48.550000000000004,0)" xlink:href="#cH"/><use transform="matrix(0.05,0,0,0.05,61.5,0)" xlink:href="#cA"/><use transform="matrix(0.05,0,0,0.05,73.5,0)" xlink:href="#cy"/><use transform="matrix(0.05,0,0,0.05,86.45,0)" xlink:href="#cI"/><use transform="matrix(0.05,0,0,0.05,92.4,0)" xlink:href="#cP"/><use transform="matrix(0.05,0,0,0.05,102.4,0)" xlink:href="#cK"/><use transform="matrix(0.05,0,0,0.05,112.4,0)" xlink:href="#cK"/><use transform="matrix(0.05,0,0,0.05,122.4,0)" xlink:href="#cL"/></g><g id="aw"><use transform="matrix(0.05,0,0,0.05,0,0)" xlink:href="#cn"/><use transform="matrix(0.05,0,0,0.05,9,0)" xlink:href="#cm"/><use transform="matrix(0.05,0,0,0.05,19,0)" xlink:href="#cp"/><use transform="matrix(0.05,0,0,0.05,24.95,0)" xlink:href="#cT"/><use transform="matrix(0.05,0,0,0.05,33.95,0)" xlink:href="#cv"/><use transform="matrix(0.05,0,0,0.05,37.900000000000006,0)" xlink:href="#cM"/><use transform="matrix(0.05,0,0,0.05,46.900000000000006,0)" xlink:href="#cm"/></g><g id="ax"><use transform="matrix(0.05,0,0,0.05,0,0)" xlink:href="#cD"/><use transform="matrix(0.05,0,0,0.05,5,0)" xlink:href="#cv"/><use transform="matrix(0.05,0,0,0.05,8.95,0)" xlink:href="#cM"/><use transform="matrix(0.05,0,0,0.05,17.95,0)" xlink:href="#cS"/><use transform="matrix(0.05,0,0,0.05,26.950000000000003,0)" xlink:href="#cm"/><use transform="matrix(0.05,0,0,0.05,36.95,0)" xlink:href="#cD"/><use transform="matrix(0.05,0,0,0.05,41.95,0)" xlink:href="#cn"/><use transform="matrix(0.05,0,0,0.05,50.95,0)" xlink:href="#dd"/></g><g id="ay"><use transform="matrix(0.05,0,0,0.05,0,0)" xlink:href="#cD"/><use transform="matrix(0.05,0,0,0.05,5,0)" xlink:href="#cv"/><use transform="matrix(0.05,0,0,0.05,8.95,0)" xlink:href="#cM"/><use transform="matrix(0.05,0,0,0.05,17.95,0)" xlink:href="#cS"/><use transform="matrix(0.05,0,0,0.05,26.950000000000003,0)" xlink:href="#cm"/><use transform="matrix(0.05,0,0,0.05,36.95,0)" xlink:href="#cD"/></g><g id="az"><use transform="matrix(0.05,0,0,0.05,0,0)" xlink:href="#cD"/><use transform="matrix(0.05,0,0,0.05,5,0)" xlink:href="#cv"/><use transform="matrix(0.05,0,0,0.05,8.95,0)" xlink:href="#cE"/><use transform="matrix(0.05,0,0,0.05,23.9,0)" xlink:href="#cm"/></g><g id="aA"><use transform="matrix(0.05,0,0,0.05,0,0)" xlink:href="#cv"/><use transform="matrix(0.05,0,0,0.05,3.95,0)" xlink:href="#cn"/></g><g id="aB"><use transform="matrix(0.05,0,0,0.05,0,0)" xlink:href="#cn"/><use transform="matrix(0.05,0,0,0.05,9,0)" xlink:href="#cm"/><use transform="matrix(0.05,0,0,0.05,19,0)" xlink:href="#cp"/><use transform="matrix(0.05,0,0,0.05,24.95,0)" xlink:href="#cT"/><use transform="matrix(0.05,0,0,0.05,33.95,0)" xlink:href="#cv"/><use transform="matrix(0.05,0,0,0.05,37.900000000000006,0)" xlink:href="#cM"/><use transform="matrix(0.05,0,0,0.05,46.900000000000006,0)" xlink:href="#cm"/><use transform="matrix(0.05,0,0,0.05,56.900000000000006,0)" xlink:href="#cw"/><use transform="matrix(0.05,0,0,0.05,66.9,0)" xlink:href="#dd"/><use transform="matrix(0.05,0,0,0.05,71.9,0)" xlink:href="#dd"/></g><g id="aC"><use transform="matrix(0.05,0,0,0.05,0,0)" xlink:href="#cA"/><use transform="matrix(0.05,0,0,0.05,12,0)" xlink:href="#cr"/></g><g id="aD"><use transform="matrix(0.05,0,0,0.05,0,0)" xlink:href="#cv"/><use transform="matrix(0.05,0,0,0.05,3.95,0)" xlink:href="#cn"/></g><g id="aE"><use transform="matrix(0.05,0,0,0.05,0,0)" xlink:href="#db"/><use transform="matrix(0.05,0,0,0.05,12.950000000000001,0)" xlink:href="#cp"/><use transform="matrix(0.05,0,0,0.05,18.900000000000002,0)" xlink:href="#cv"/><use transform="matrix(0.05,0,0,0.05,22.85,0)" xlink:href="#cD"/><use transform="matrix(0.05,0,0,0.05,27.85,0)" xlink:href="#cD"/><use transform="matrix(0.05,0,0,0.05,32.85,0)" xlink:href="#cm"/><use transform="matrix(0.05,0,0,0.05,42.85,0)" xlink:href="#cr"/></g><g id="aF"><use transform="matrix(0.05,0,0,0.05,0,0)" xlink:href="#cO"/><use transform="matrix(0.05,0,0,0.05,10,0)" xlink:href="#da"/></g><use transform="matrix(0.05,0,0,0.05,0,0)" xlink:href="#ck" id="aG"/><g id="aH"><use transform="matrix(0.05,0,0,0.05,0,0)" xlink:href="#cn"/><use transform="matrix(0.05,0,0,0.05,9,0)" xlink:href="#cv"/><use transform="matrix(0.05,0,0,0.05,12.949999999999998,0)" xlink:href="#cr"/><use transform="matrix(0.05,0,0,0.05,22.95,0)" xlink:href="#de"/><use transform="matrix(0.05,0,0,0.05,32.95,0)" xlink:href="#cl"/><use transform="matrix(0.05,0,0,0.05,36.900000000000006,0)" xlink:href="#cm"/></g><g id="aI"><use transform="matrix(0.05,0,0,0.05,0,0)" xlink:href="#cn"/><use transform="matrix(0.05,0,0,0.05,9,0)" xlink:href="#ck"/><use transform="matrix(0.05,0,0,0.05,19,0)" xlink:href="#cl"/><use transform="matrix(0.05,0,0,0.05,22.95,0)" xlink:href="#cm"/><use transform="matrix(0.05,0,0,0.05,32.95,0)" xlink:href="#cn"/><use transform="matrix(0.05,0,0,0.05,41.95,0)" xlink:href="#co"/><use transform="matrix(0.05,0,0,0.05,51.95,0)" xlink:href="#cm"/><use transform="matrix(0.05,0,0,0.05,61.95,0)" xlink:href="#cp"/><use transform="matrix(0.05,0,0,0.05,67.9,0)" xlink:href="#cn"/><use transform="matrix(0.05,0,0,0.05,76.9,0)" xlink:href="#cq"/><use transform="matrix(0.05,0,0,0.05,86.9,0)" xlink:href="#cr"/></g><path d="M30 0v-248h187v28H63v79h144v27H63v87h162V0H30" id="dg"/><path d="M108 0H70L1-190h34L89-25l56-165h34" id="dh"/><path d="M100-194c63 0 86 42 84 106H49c0 40 14 67 53 68 26 1 43-12 49-29l28 8c-11 28-37 45-77 45C44 4 14-33 15-96c1-61 26-98 85-98zm52 81c6-60-76-77-97-28-3 7-6 17-6 28h103" id="di"/><path d="M114-163C36-179 61-72 57 0H25l-1-190h30c1 12-1 29 2 39 6-27 23-49 58-41v29" id="dj"/><path d="M179-190L93 31C79 59 56 82 12 73V49c39 6 53-20 64-50L1-190h34L92-34l54-156h33" id="dk"/><g id="aJ"><use transform="matrix(0.05,0,0,0.05,0,0)" xlink:href="#dg"/><use transform="matrix(0.05,0,0,0.05,12,0)" xlink:href="#dh"/><use transform="matrix(0.05,0,0,0.05,21,0)" xlink:href="#di"/><use transform="matrix(0.05,0,0,0.05,31,0)" xlink:href="#dj"/><use transform="matrix(0.05,0,0,0.05,36.95,0)" xlink:href="#dk"/></g><path d="M96-169c-40 0-48 33-48 73s9 75 48 75c24 0 41-14 43-38l32 2c-6 37-31 61-74 61-59 0-76-41-82-99-10-93 101-131 147-64 4 7 5 14 7 22l-32 3c-4-21-16-35-41-35" id="dl"/><path d="M141-36C126-15 110 5 73 4 37 3 15-17 15-53c-1-64 63-63 125-63 3-35-9-54-41-54-24 1-41 7-42 31l-33-3c5-37 33-52 76-52 45 0 72 20 72 64v82c-1 20 7 32 28 27v20c-31 9-61-2-59-35zM48-53c0 20 12 33 32 33 41-3 63-29 60-74-43 2-92-5-92 41" id="dm"/><g id="aK"><use transform="matrix(0.05,0,0,0.05,0,0)" xlink:href="#dl"/><use transform="matrix(0.05,0,0,0.05,9,0)" xlink:href="#dm"/><use transform="matrix(0.05,0,0,0.05,19,0)" xlink:href="#dj"/></g><path d="M206 0h-36l-40-164L89 0H53L-1-190h32L70-26l43-164h34l41 164 42-164h31" id="dn"/><path d="M24-231v-30h32v30H24zM24 0v-190h32V0H24" id="do"/><path d="M24 0v-261h32V0H24" id="dp"/><g id="aL"><use transform="matrix(0.05,0,0,0.05,0,0)" xlink:href="#dn"/><use transform="matrix(0.05,0,0,0.05,12.950000000000001,0)" xlink:href="#do"/><use transform="matrix(0.05,0,0,0.05,16.900000000000002,0)" xlink:href="#dp"/><use transform="matrix(0.05,0,0,0.05,20.85,0)" xlink:href="#dp"/></g><path d="M106-169C34-169 62-67 57 0H25v-261h32l-1 103c12-21 28-36 61-36 89 0 53 116 60 194h-32v-121c2-32-8-49-39-48" id="dq"/><g id="aM"><use transform="matrix(0.05,0,0,0.05,0,0)" xlink:href="#dq"/><use transform="matrix(0.05,0,0,0.05,10,0)" xlink:href="#dm"/><use transform="matrix(0.05,0,0,0.05,20,0)" xlink:href="#dh"/><use transform="matrix(0.05,0,0,0.05,29,0)" xlink:href="#di"/></g><path d="M9 0v-24l116-142H16v-24h144v24L44-24h123V0H9" id="dr"/><path d="M100-194c62-1 85 37 85 99 1 63-27 99-86 99S16-35 15-95c0-66 28-99 85-99zM99-20c44 1 53-31 53-75 0-43-8-75-51-75s-53 32-53 75 10 74 51 75" id="ds"/><g id="aN"><use transform="matrix(0.05,0,0,0.05,0,0)" xlink:href="#dr"/><use transform="matrix(0.05,0,0,0.05,9,0)" xlink:href="#di"/><use transform="matrix(0.05,0,0,0.05,19,0)" xlink:href="#dj"/><use transform="matrix(0.05,0,0,0.05,24.95,0)" xlink:href="#ds"/></g><g id="aO"><use transform="matrix(0.05,0,0,0.05,0,0)" xlink:href="#ds"/><use transform="matrix(0.05,0,0,0.05,10,0)" xlink:href="#dj"/></g><path d="M210-169c-67 3-38 105-44 169h-31v-121c0-29-5-50-35-48C34-165 62-65 56 0H25l-1-190h30c1 10-1 24 2 32 10-44 99-50 107 0 11-21 27-35 58-36 85-2 47 119 55 194h-31v-121c0-29-5-49-35-48" id="dt"/><path d="M117-194c89-4 53 116 60 194h-32v-121c0-31-8-49-39-48C34-167 62-67 57 0H25l-1-190h30c1 10-1 24 2 32 11-22 29-35 61-36" id="du"/><g id="aP"><use transform="matrix(0.05,0,0,0.05,0,0)" xlink:href="#dt"/><use transform="matrix(0.05,0,0,0.05,14.950000000000001,0)" xlink:href="#dm"/><use transform="matrix(0.05,0,0,0.05,24.950000000000003,0)" xlink:href="#du"/><use transform="matrix(0.05,0,0,0.05,34.95,0)" xlink:href="#dk"/></g><path d="M135-143c-3-34-86-38-87 0 15 53 115 12 119 90S17 21 10-45l28-5c4 36 97 45 98 0-10-56-113-15-118-90-4-57 82-63 122-42 12 7 21 19 24 35" id="dv"/><g id="aQ"><use transform="matrix(0.05,0,0,0.05,0,0)" xlink:href="#dv"/><use transform="matrix(0.05,0,0,0.05,9,0)" xlink:href="#di"/><use transform="matrix(0.05,0,0,0.05,19,0)" xlink:href="#dj"/><use transform="matrix(0.05,0,0,0.05,24.95,0)" xlink:href="#dh"/><use transform="matrix(0.05,0,0,0.05,33.95,0)" xlink:href="#do"/><use transform="matrix(0.05,0,0,0.05,37.900000000000006,0)" xlink:href="#dl"/><use transform="matrix(0.05,0,0,0.05,46.900000000000006,0)" xlink:href="#di"/></g><path d="M59-47c-2 24 18 29 38 22v24C64 9 27 4 27-40v-127H5v-23h24l9-43h21v43h35v23H59v120" id="dw"/><path d="M143 0L79-87 56-68V0H24v-261h32v163l83-92h37l-77 82L181 0h-38" id="dx"/><path d="M33 0v-38h34V0H33" id="dy"/><g id="aR"><use transform="matrix(0.05,0,0,0.05,0,0)" xlink:href="#dw"/><use transform="matrix(0.05,0,0,0.05,5,0)" xlink:href="#do"/><use transform="matrix(0.05,0,0,0.05,8.95,0)" xlink:href="#dl"/><use transform="matrix(0.05,0,0,0.05,17.95,0)" xlink:href="#dx"/><use transform="matrix(0.05,0,0,0.05,26.950000000000003,0)" xlink:href="#di"/><use transform="matrix(0.05,0,0,0.05,36.95,0)" xlink:href="#dw"/><use transform="matrix(0.05,0,0,0.05,41.95,0)" xlink:href="#dv"/><use transform="matrix(0.05,0,0,0.05,50.95,0)" xlink:href="#dy"/></g><path d="M205 0l-28-72H64L36 0H1l101-248h38L239 0h-34zm-38-99l-47-123c-12 45-31 82-46 123h93" id="dz"/><use transform="matrix(0.05,0,0,0.05,0,0)" xlink:href="#dz" id="aS"/><path d="M85-194c31 0 48 13 60 33l-1-100h32l1 261h-30c-2-10 0-23-3-31C134-8 116 4 85 4 32 4 16-35 15-94c0-66 23-100 70-100zm9 24c-40 0-46 34-46 75 0 40 6 74 45 74 42 0 51-32 51-76 0-42-9-74-50-73" id="dA"/><g id="aT"><use transform="matrix(0.05,0,0,0.05,0,0)" xlink:href="#dj"/><use transform="matrix(0.05,0,0,0.05,5.95,0)" xlink:href="#di"/><use transform="matrix(0.05,0,0,0.05,15.949999999999998,0)" xlink:href="#ds"/><use transform="matrix(0.05,0,0,0.05,25.950000000000003,0)" xlink:href="#dj"/><use transform="matrix(0.05,0,0,0.05,31.899999999999995,0)" xlink:href="#dA"/></g><path d="M101-234c-31-9-42 10-38 44h38v23H63V0H32v-167H5v-23h27c-7-52 17-82 69-68v24" id="dB"/><g id="aU"><use transform="matrix(0.05,0,0,0.05,0,0)" xlink:href="#ds"/><use transform="matrix(0.05,0,0,0.05,10,0)" xlink:href="#dB"/></g><g id="aV"><use transform="matrix(0.05,0,0,0.05,0,0)" xlink:href="#dw"/><use transform="matrix(0.05,0,0,0.05,5,0)" xlink:href="#dq"/><use transform="matrix(0.05,0,0,0.05,15,0)" xlink:href="#di"/><use transform="matrix(0.05,0,0,0.05,25,0)" xlink:href="#dv"/><use transform="matrix(0.05,0,0,0.05,34,0)" xlink:href="#di"/></g><g id="aW"><use transform="matrix(0.05,0,0,0.05,0,0)" xlink:href="#dw"/><use transform="matrix(0.05,0,0,0.05,5,0)" xlink:href="#do"/><use transform="matrix(0.05,0,0,0.05,8.95,0)" xlink:href="#dl"/><use transform="matrix(0.05,0,0,0.05,17.95,0)" xlink:href="#dx"/><use transform="matrix(0.05,0,0,0.05,26.950000000000003,0)" xlink:href="#di"/><use transform="matrix(0.05,0,0,0.05,36.95,0)" xlink:href="#dw"/><use transform="matrix(0.05,0,0,0.05,41.95,0)" xlink:href="#dv"/></g><path d="M115-194c53 0 69 39 70 98 0 66-23 100-70 100C84 3 66-7 56-30L54 0H23l1-261h32v101c10-23 28-34 59-34zm-8 174c40 0 45-34 45-75 0-40-5-75-45-74-42 0-51 32-51 76 0 43 10 73 51 73" id="dC"/><g id="aX"><use transform="matrix(0.05,0,0,0.05,0,0)" xlink:href="#dC"/><use transform="matrix(0.05,0,0,0.05,10,0)" xlink:href="#di"/></g><g id="aY"><use transform="matrix(0.05,0,0,0.05,0,0)" xlink:href="#dv"/><use transform="matrix(0.05,0,0,0.05,9,0)" xlink:href="#dw"/><use transform="matrix(0.05,0,0,0.05,14,0)" xlink:href="#ds"/><use transform="matrix(0.05,0,0,0.05,24,0)" xlink:href="#dj"/><use transform="matrix(0.05,0,0,0.05,29.950000000000003,0)" xlink:href="#di"/><use transform="matrix(0.05,0,0,0.05,39.95,0)" xlink:href="#dA"/></g><g id="aZ"><use transform="matrix(0.05,0,0,0.05,0,0)" xlink:href="#do"/><use transform="matrix(0.05,0,0,0.05,3.95,0)" xlink:href="#du"/></g><g id="ba"><use transform="matrix(0.05,0,0,0.05,0,0)" xlink:href="#dw"/><use transform="matrix(0.05,0,0,0.05,5,0)" xlink:href="#dq"/><use transform="matrix(0.05,0,0,0.05,15,0)" xlink:href="#di"/></g><path d="M185-189c-5-48-123-54-124 2 14 75 158 14 163 119 3 78-121 87-175 55-17-10-28-26-33-46l33-7c5 56 141 63 141-1 0-78-155-14-162-118-5-82 145-84 179-34 5 7 8 16 11 25" id="dD"/><g id="bb"><use transform="matrix(0.05,0,0,0.05,0,0)" xlink:href="#dD"/><use transform="matrix(0.05,0,0,0.05,12,0)" xlink:href="#di"/><use transform="matrix(0.05,0,0,0.05,22,0)" xlink:href="#dj"/><use transform="matrix(0.05,0,0,0.05,27.950000000000003,0)" xlink:href="#dh"/><use transform="matrix(0.05,0,0,0.05,36.95,0)" xlink:href="#do"/><use transform="matrix(0.05,0,0,0.05,40.900000000000006,0)" xlink:href="#dl"/><use transform="matrix(0.05,0,0,0.05,49.900000000000006,0)" xlink:href="#di"/></g><path d="M197 0v-115H63V0H30v-248h33v105h134v-105h34V0h-34" id="dE"/><g id="bc"><use transform="matrix(0.05,0,0,0.05,0,0)" xlink:href="#dE"/><use transform="matrix(0.05,0,0,0.05,12.950000000000001,0)" xlink:href="#do"/><use transform="matrix(0.05,0,0,0.05,16.900000000000002,0)" xlink:href="#dv"/><use transform="matrix(0.05,0,0,0.05,25.900000000000002,0)" xlink:href="#dw"/><use transform="matrix(0.05,0,0,0.05,30.900000000000002,0)" xlink:href="#ds"/><use transform="matrix(0.05,0,0,0.05,40.900000000000006,0)" xlink:href="#dj"/><use transform="matrix(0.05,0,0,0.05,46.85000000000001,0)" xlink:href="#dk"/><use transform="matrix(0.05,0,0,0.05,54.5,0)" xlink:href="#dy"/></g><g id="bd"><use transform="matrix(0.05,0,0,0.05,0,0)" xlink:href="#cH"/><use transform="matrix(0.05,0,0,0.05,12.950000000000001,0)" xlink:href="#cv"/><use transform="matrix(0.05,0,0,0.05,16.900000000000002,0)" xlink:href="#cn"/><use transform="matrix(0.05,0,0,0.05,25.900000000000002,0)" xlink:href="#cD"/><use transform="matrix(0.05,0,0,0.05,30.900000000000002,0)" xlink:href="#cq"/><use transform="matrix(0.05,0,0,0.05,40.900000000000006,0)" xlink:href="#cp"/><use transform="matrix(0.05,0,0,0.05,46.85000000000001,0)" xlink:href="#da"/></g><g id="be"><use transform="matrix(0.05,0,0,0.05,0,0)" xlink:href="#dc"/><use transform="matrix(0.05,0,0,0.05,10,0)" xlink:href="#cv"/><use transform="matrix(0.05,0,0,0.05,13.949999999999998,0)" xlink:href="#cn"/><use transform="matrix(0.05,0,0,0.05,22.95,0)" xlink:href="#cD"/><use transform="matrix(0.05,0,0,0.05,27.950000000000003,0)" xlink:href="#cq"/><use transform="matrix(0.05,0,0,0.05,37.95,0)" xlink:href="#cp"/><use transform="matrix(0.05,0,0,0.05,43.900000000000006,0)" xlink:href="#da"/><use transform="matrix(0.05,0,0,0.05,52.900000000000006,0)" xlink:href="#cu"/><use transform="matrix(0.05,0,0,0.05,62.900000000000006,0)" xlink:href="#cv"/><use transform="matrix(0.05,0,0,0.05,66.85000000000001,0)" xlink:href="#cw"/></g><g id="bf"><use transform="matrix(0.05,0,0,0.05,0,0)" xlink:href="#cE"/><use transform="matrix(0.05,0,0,0.05,14.950000000000001,0)" xlink:href="#cm"/><use transform="matrix(0.05,0,0,0.05,24.950000000000003,0)" xlink:href="#cM"/><use transform="matrix(0.05,0,0,0.05,33.95,0)" xlink:href="#dc"/><use transform="matrix(0.05,0,0,0.05,43.95,0)" xlink:href="#ck"/><use transform="matrix(0.05,0,0,0.05,53.95,0)" xlink:href="#cr"/><use transform="matrix(0.05,0,0,0.05,63.95,0)" xlink:href="#cv"/><use transform="matrix(0.05,0,0,0.05,67.9,0)" xlink:href="#cM"/><use transform="matrix(0.05,0,0,0.05,76.9,0)" xlink:href="#cu"/><use transform="matrix(0.05,0,0,0.05,86.9,0)" xlink:href="#cv"/><use transform="matrix(0.05,0,0,0.05,90.85000000000001,0)" xlink:href="#cw"/></g><g id="bg"><use transform="matrix(0.05,0,0,0.05,0,0)" xlink:href="#ck"/><use transform="matrix(0.05,0,0,0.05,10,0)" xlink:href="#cn"/><use transform="matrix(0.05,0,0,0.05,19,0)" xlink:href="#cn"/><use transform="matrix(0.05,0,0,0.05,28,0)" xlink:href="#cv"/><use transform="matrix(0.05,0,0,0.05,31.950000000000003,0)" xlink:href="#de"/><use transform="matrix(0.05,0,0,0.05,41.95,0)" xlink:href="#cr"/><use transform="matrix(0.05,0,0,0.05,51.95,0)" xlink:href="#cm"/><use transform="matrix(0.05,0,0,0.05,61.95,0)" xlink:href="#cw"/><use transform="matrix(0.05,0,0,0.05,71.95,0)" xlink:href="#cu"/><use transform="matrix(0.05,0,0,0.05,81.95,0)" xlink:href="#cw"/><use transform="matrix(0.05,0,0,0.05,91.95,0)" xlink:href="#ck"/><use transform="matrix(0.05,0,0,0.05,101.95,0)" xlink:href="#cD"/><use transform="matrix(0.05,0,0,0.05,106.95,0)" xlink:href="#cm"/></g><g id="bh"><use transform="matrix(0.05,0,0,0.05,0,0)" xlink:href="#cU"/><use transform="matrix(0.05,0,0,0.05,12.950000000000001,0)" xlink:href="#ck"/><use transform="matrix(0.05,0,0,0.05,22.950000000000003,0)" xlink:href="#cD"/><use transform="matrix(0.05,0,0,0.05,27.950000000000003,0)" xlink:href="#cm"/></g><g id="bi"><use transform="matrix(0.05,0,0,0.05,0,0)" xlink:href="#cz"/><use transform="matrix(0.05,0,0,0.05,5,0)" xlink:href="#cr"/><use transform="matrix(0.05,0,0,0.05,15,0)" xlink:href="#cD"/><use transform="matrix(0.05,0,0,0.05,20,0)" xlink:href="#cm"/><use transform="matrix(0.05,0,0,0.05,30,0)" xlink:href="#de"/><use transform="matrix(0.05,0,0,0.05,40,0)" xlink:href="#cm"/><use transform="matrix(0.05,0,0,0.05,50,0)" xlink:href="#cp"/></g><g id="bj"><use transform="matrix(0.05,0,0,0.05,0,0)" xlink:href="#cR"/><use transform="matrix(0.05,0,0,0.05,14.950000000000001,0)" xlink:href="#cm"/><use transform="matrix(0.05,0,0,0.05,24.950000000000003,0)" xlink:href="#cM"/><use transform="matrix(0.05,0,0,0.05,33.95,0)" xlink:href="#dc"/><use transform="matrix(0.05,0,0,0.05,43.95,0)" xlink:href="#ck"/><use transform="matrix(0.05,0,0,0.05,53.95,0)" xlink:href="#cr"/><use transform="matrix(0.05,0,0,0.05,63.95,0)" xlink:href="#cv"/><use transform="matrix(0.05,0,0,0.05,67.9,0)" xlink:href="#cM"/></g><g id="bk"><use transform="matrix(0.05,0,0,0.05,0,0)" xlink:href="#cV"/><use transform="matrix(0.05,0,0,0.05,10.950000000000001,0)" xlink:href="#dc"/><use transform="matrix(0.05,0,0,0.05,20.950000000000003,0)" xlink:href="#cm"/></g><g id="bl"><use transform="matrix(0.05,0,0,0.05,0,0)" xlink:href="#cj"/><use transform="matrix(0.05,0,0,0.05,12,0)" xlink:href="#cm"/><use transform="matrix(0.05,0,0,0.05,22,0)" xlink:href="#cp"/><use transform="matrix(0.05,0,0,0.05,27.950000000000003,0)" xlink:href="#cT"/><use transform="matrix(0.05,0,0,0.05,36.95,0)" xlink:href="#cv"/><use transform="matrix(0.05,0,0,0.05,40.900000000000006,0)" xlink:href="#cM"/><use transform="matrix(0.05,0,0,0.05,49.900000000000006,0)" xlink:href="#cm"/></g><g id="bm"><use transform="matrix(0.05,0,0,0.05,0,0)" xlink:href="#cH"/><use transform="matrix(0.05,0,0,0.05,12.950000000000001,0)" xlink:href="#cv"/><use transform="matrix(0.05,0,0,0.05,16.900000000000002,0)" xlink:href="#cn"/><use transform="matrix(0.05,0,0,0.05,25.900000000000002,0)" xlink:href="#cD"/><use transform="matrix(0.05,0,0,0.05,30.900000000000002,0)" xlink:href="#cq"/><use transform="matrix(0.05,0,0,0.05,40.900000000000006,0)" xlink:href="#cp"/><use transform="matrix(0.05,0,0,0.05,46.85000000000001,0)" xlink:href="#da"/></g><g id="bn"><use transform="matrix(0.05,0,0,0.05,0,0)" xlink:href="#db"/><use transform="matrix(0.05,0,0,0.05,12.950000000000001,0)" xlink:href="#cv"/><use transform="matrix(0.05,0,0,0.05,16.900000000000002,0)" xlink:href="#cl"/><use transform="matrix(0.05,0,0,0.05,20.85,0)" xlink:href="#cl"/></g><g id="bo"><use transform="matrix(0.05,0,0,0.05,0,0)" xlink:href="#cM"/><use transform="matrix(0.05,0,0,0.05,9,0)" xlink:href="#cq"/><use transform="matrix(0.05,0,0,0.05,19,0)" xlink:href="#cr"/><use transform="matrix(0.05,0,0,0.05,29,0)" xlink:href="#cD"/><use transform="matrix(0.05,0,0,0.05,34,0)" xlink:href="#ck"/><use transform="matrix(0.05,0,0,0.05,44,0)" xlink:href="#cv"/><use transform="matrix(0.05,0,0,0.05,47.95,0)" xlink:href="#cr"/></g><g id="bp"><use transform="matrix(0.05,0,0,0.05,0,0)" xlink:href="#cp"/><use transform="matrix(0.05,0,0,0.05,5.95,0)" xlink:href="#cm"/><use transform="matrix(0.05,0,0,0.05,15.949999999999998,0)" xlink:href="#cM"/><use transform="matrix(0.05,0,0,0.05,24.95,0)" xlink:href="#cq"/><use transform="matrix(0.05,0,0,0.05,34.95,0)" xlink:href="#cp"/><use transform="matrix(0.05,0,0,0.05,40.900000000000006,0)" xlink:href="#cw"/></g><g id="bq"><use transform="matrix(0.05,0,0,0.05,0,0)" xlink:href="#cq"/><use transform="matrix(0.05,0,0,0.05,10,0)" xlink:href="#cC"/></g><g id="br"><use transform="matrix(0.05,0,0,0.05,0,0)" xlink:href="#ck"/><use transform="matrix(0.05,0,0,0.05,10,0)" xlink:href="#cl"/><use transform="matrix(0.05,0,0,0.05,13.949999999999998,0)" xlink:href="#cl"/></g><g id="bs"><use transform="matrix(0.05,0,0,0.05,0,0)" xlink:href="#cn"/><use transform="matrix(0.05,0,0,0.05,9,0)" xlink:href="#cm"/><use transform="matrix(0.05,0,0,0.05,19,0)" xlink:href="#cp"/><use transform="matrix(0.05,0,0,0.05,24.95,0)" xlink:href="#cT"/><use transform="matrix(0.05,0,0,0.05,33.95,0)" xlink:href="#cv"/><use transform="matrix(0.05,0,0,0.05,37.900000000000006,0)" xlink:href="#cM"/><use transform="matrix(0.05,0,0,0.05,46.900000000000006,0)" xlink:href="#cm"/></g><g id="bt"><use transform="matrix(0.05,0,0,0.05,0,0)" xlink:href="#cD"/><use transform="matrix(0.05,0,0,0.05,5,0)" xlink:href="#cv"/><use transform="matrix(0.05,0,0,0.05,8.95,0)" xlink:href="#cM"/><use transform="matrix(0.05,0,0,0.05,17.95,0)" xlink:href="#cS"/><use transform="matrix(0.05,0,0,0.05,26.950000000000003,0)" xlink:href="#cm"/><use transform="matrix(0.05,0,0,0.05,36.95,0)" xlink:href="#cD"/><use transform="matrix(0.05,0,0,0.05,41.95,0)" xlink:href="#cn"/><use transform="matrix(0.05,0,0,0.05,50.95,0)" xlink:href="#cX"/></g><g id="bu"><use transform="matrix(0.05,0,0,0.05,0,0)" xlink:href="#cD"/><use transform="matrix(0.05,0,0,0.05,5,0)" xlink:href="#dc"/><use transform="matrix(0.05,0,0,0.05,15,0)" xlink:href="#ck"/><use transform="matrix(0.05,0,0,0.05,25,0)" xlink:href="#cD"/></g><g id="bv"><use transform="matrix(0.05,0,0,0.05,0,0)" xlink:href="#cp"/><use transform="matrix(0.05,0,0,0.05,5.95,0)" xlink:href="#cm"/><use transform="matrix(0.05,0,0,0.05,15.949999999999998,0)" xlink:href="#cM"/><use transform="matrix(0.05,0,0,0.05,24.95,0)" xlink:href="#cm"/><use transform="matrix(0.05,0,0,0.05,34.95,0)" xlink:href="#cv"/><use transform="matrix(0.05,0,0,0.05,38.900000000000006,0)" xlink:href="#cT"/><use transform="matrix(0.05,0,0,0.05,47.900000000000006,0)" xlink:href="#cm"/><use transform="matrix(0.05,0,0,0.05,57.900000000000006,0)" xlink:href="#cw"/></g><g id="bw"><use transform="matrix(0.05,0,0,0.05,0,0)" xlink:href="#cE"/><use transform="matrix(0.05,0,0,0.05,14.950000000000001,0)" xlink:href="#cm"/><use transform="matrix(0.05,0,0,0.05,24.950000000000003,0)" xlink:href="#cM"/><use transform="matrix(0.05,0,0,0.05,33.95,0)" xlink:href="#dc"/><use transform="matrix(0.05,0,0,0.05,43.95,0)" xlink:href="#ck"/><use transform="matrix(0.05,0,0,0.05,53.95,0)" xlink:href="#cr"/><use transform="matrix(0.05,0,0,0.05,63.95,0)" xlink:href="#cv"/><use transform="matrix(0.05,0,0,0.05,67.9,0)" xlink:href="#cM"/><use transform="matrix(0.05,0,0,0.05,76.9,0)" xlink:href="#cn"/></g><g id="bx"><use transform="matrix(0.05,0,0,0.05,0,0)" xlink:href="#db"/><use transform="matrix(0.05,0,0,0.05,12.950000000000001,0)" xlink:href="#dc"/><use transform="matrix(0.05,0,0,0.05,22.950000000000003,0)" xlink:href="#cq"/></g><g id="by"><use transform="matrix(0.05,0,0,0.05,0,0)" xlink:href="#cn"/><use transform="matrix(0.05,0,0,0.05,9,0)" xlink:href="#cm"/><use transform="matrix(0.05,0,0,0.05,19,0)" xlink:href="#cp"/><use transform="matrix(0.05,0,0,0.05,24.95,0)" xlink:href="#cT"/><use transform="matrix(0.05,0,0,0.05,33.95,0)" xlink:href="#cv"/><use transform="matrix(0.05,0,0,0.05,37.900000000000006,0)" xlink:href="#cM"/><use transform="matrix(0.05,0,0,0.05,46.900000000000006,0)" xlink:href="#cm"/><use transform="matrix(0.05,0,0,0.05,56.900000000000006,0)" xlink:href="#cw"/></g><g id="bz"><use transform="matrix(0.05,0,0,0.05,0,0)" xlink:href="#cM"/><use transform="matrix(0.05,0,0,0.05,9,0)" xlink:href="#ck"/><use transform="matrix(0.05,0,0,0.05,19,0)" xlink:href="#cp"/><use transform="matrix(0.05,0,0,0.05,24.95,0)" xlink:href="#cn"/></g><g id="bA"><use transform="matrix(0.05,0,0,0.05,0,0)" xlink:href="#cE"/><use transform="matrix(0.05,0,0,0.05,14.950000000000001,0)" xlink:href="#cm"/><use transform="matrix(0.05,0,0,0.05,24.950000000000003,0)" xlink:href="#cM"/><use transform="matrix(0.05,0,0,0.05,33.95,0)" xlink:href="#dc"/><use transform="matrix(0.05,0,0,0.05,43.95,0)" xlink:href="#ck"/><use transform="matrix(0.05,0,0,0.05,53.95,0)" xlink:href="#cr"/><use transform="matrix(0.05,0,0,0.05,63.95,0)" xlink:href="#cv"/><use transform="matrix(0.05,0,0,0.05,67.9,0)" xlink:href="#cM"/></g><g id="bB"><use transform="matrix(0.05,0,0,0.05,0,0)" xlink:href="#cn"/><use transform="matrix(0.05,0,0,0.05,9,0)" xlink:href="#cm"/><use transform="matrix(0.05,0,0,0.05,19,0)" xlink:href="#cp"/><use transform="matrix(0.05,0,0,0.05,24.95,0)" xlink:href="#cT"/><use transform="matrix(0.05,0,0,0.05,33.95,0)" xlink:href="#cv"/><use transform="matrix(0.05,0,0,0.05,37.900000000000006,0)" xlink:href="#cM"/><use transform="matrix(0.05,0,0,0.05,46.900000000000006,0)" xlink:href="#cm"/><use transform="matrix(0.05,0,0,0.05,56.900000000000006,0)" xlink:href="#cw"/></g><g id="bC"><use transform="matrix(0.05,0,0,0.05,0,0)" xlink:href="#ck"/><use transform="matrix(0.05,0,0,0.05,10,0)" xlink:href="#cr"/></g><g id="bD"><use transform="matrix(0.05,0,0,0.05,0,0)" xlink:href="#cm"/><use transform="matrix(0.05,0,0,0.05,10,0)" xlink:href="#cr"/><use transform="matrix(0.05,0,0,0.05,20,0)" xlink:href="#cD"/><use transform="matrix(0.05,0,0,0.05,25,0)" xlink:href="#cp"/><use transform="matrix(0.05,0,0,0.05,30.950000000000003,0)" xlink:href="#da"/></g><g id="bE"><use transform="matrix(0.05,0,0,0.05,0,0)" xlink:href="#cv"/><use transform="matrix(0.05,0,0,0.05,3.95,0)" xlink:href="#cr"/></g><g id="bF"><use transform="matrix(0.05,0,0,0.05,0,0)" xlink:href="#cD"/><use transform="matrix(0.05,0,0,0.05,5,0)" xlink:href="#dc"/><use transform="matrix(0.05,0,0,0.05,15,0)" xlink:href="#cm"/></g></defs></g></svg>